<svg width="74" height="64" viewBox="0 0 74 64" fill="none" xmlns="http://www.w3.org/2000/svg">
<path d="M0.0589779 50.3701C0.198447 48.7011 0.691686 47.081 1.50591 45.6173C2.32013 44.1537 3.43669 42.88 4.78136 41.8811C7.73542 39.7 11.2332 37.7701 14.3244 35.7147C14.4569 35.6256 15.1286 35.21 15.1468 35.1209C14.891 34.5933 14.5597 34.1046 14.2992 33.5793C14.0388 33.054 13.6138 31.6746 13.3717 31.3206C13.3488 31.2886 12.8485 31.01 12.7228 30.9072C11.0322 29.5232 9.96525 25.2753 11.809 23.704C12.0923 23.4619 12.4144 23.3774 12.7228 23.1947C12.3801 19.9653 11.9483 15.827 14.779 13.5409C16.0013 12.552 16.6067 12.7027 17.9775 12.3556C18.1672 12.3076 18.583 11.9833 18.8 11.8851C19.8168 11.4312 20.8917 11.1207 21.994 10.9625C22.0122 10.878 21.93 10.8962 21.8706 10.8711C20.879 10.444 18.7338 10.0329 18.0803 9.2884C17.1962 8.28351 17.5617 6.52267 18.8343 6.0385C24.0661 4.31649 29.2432 2.37066 34.4705 0.664629C35.8687 0.205578 36.8008 -0.228351 38.3338 0.127927C43.8604 2.19708 49.7571 3.75238 55.2403 5.89919C56.0924 6.23263 56.7847 6.72822 56.8647 7.72626C57.0452 9.93701 54.4955 10.122 52.9807 10.7227C52.9145 10.7478 52.7957 10.7409 52.8117 10.83C58.2195 10.878 62.67 14.5435 63.8351 19.7963C63.9677 20.397 64.0636 20.9862 63.4513 21.3745C62.839 21.7627 62.6974 21.4978 62.1445 21.4247C62.0463 21.411 62.0417 21.4247 62.0531 21.5138C62.1194 22.0254 62.4986 22.6922 62.4941 23.2609C65.5395 24.2224 64.3675 29.3405 62.4552 30.9118C62.3158 31.0237 61.8292 31.284 61.8018 31.3206C61.667 31.5124 61.3449 32.6132 61.1804 32.965C60.7461 33.9107 60.2357 34.8196 59.6542 35.6827C62.4095 37.5669 65.295 39.2661 68.0618 41.132C73.2982 44.6651 74.2874 48.5247 73.947 54.7185C73.8556 56.372 72.7544 58.1945 70.8947 58.1945H64.7559V60.8735C64.7559 62.2118 63.1566 63.8173 61.8224 63.9178C45.3013 64.0305 28.7756 64.0305 12.2453 63.9178C10.902 63.8036 9.31183 62.2255 9.31183 60.8735V58.1922H3.04731C1.65824 58.1922 0.228042 56.6917 0.0589779 55.3603C-0.126079 53.8278 0.196057 51.9414 0.0589779 50.3701ZM53.9175 7.87242L37.6073 2.33412C37.144 2.27893 36.6742 2.3345 36.2365 2.49627L20.5135 7.87242L20.742 8.04143C25.7111 9.64011 30.5957 11.5174 35.5602 13.123C36.4878 13.4244 36.9173 13.6802 37.934 13.4313C39.1357 13.1344 40.5956 12.5315 41.8019 12.1226C45.8138 10.766 49.7982 9.32951 53.8215 8.01174L53.9175 7.87242ZM48.7953 12.182L38.6103 15.6489C37.6955 15.9253 36.7195 15.9253 35.8047 15.6489L25.6288 12.182L24.9434 16.6789C27.0613 16.6995 29.2843 16.3934 31.3656 16.8822C33.2413 17.3207 34.9594 18.5242 36.7117 19.2985L37.2829 19.3122C39.1015 18.5905 40.7853 17.3572 42.6952 16.9004C44.4658 16.4779 46.2913 16.6424 48.0847 16.688C48.5417 16.688 49.0123 16.6743 49.4738 16.688L48.7953 12.182ZM3.04731 55.8513H9.30041C8.96 50.1851 11.5851 44.9528 16.3303 41.9062L26.858 35.8312C26.8711 35.7694 26.8605 35.705 26.8283 35.6507C26.6592 35.2442 26.0606 34.486 25.8025 34.0269C25.0763 32.7381 24.4691 31.3858 23.9885 29.9868C22.5468 29.2195 21.6398 27.8058 21.1715 26.2733C20.5204 24.1448 20.3467 20.7373 23.038 20.027C22.9718 19.4675 23.1957 18.7983 23.0952 18.2525C23.0289 17.8916 22.4509 17.291 22.6017 16.7703L23.1409 13.2463L23.0723 13.1207C21.9551 13.2897 20.774 13.4884 19.7527 13.9885C19.4123 14.1553 18.9417 14.5618 18.6104 14.6303C18.3636 14.6805 18.1352 14.6303 17.9067 14.6646C14.7904 15.1419 14.6465 18.1885 14.7859 20.783C14.8293 21.6188 15.0806 22.473 15.0303 23.3089C15.0001 23.8578 14.9283 24.4037 14.8156 24.9418C14.6077 25.627 13.9017 25.8782 13.246 25.6818C12.9559 26.4926 13.479 28.6965 14.233 29.1487C14.4249 29.2651 14.6282 29.2446 14.8407 29.3428C15.4164 29.61 15.5055 30.4984 15.7249 31.0465C16.377 32.7685 17.3172 34.3671 18.5053 35.7741C18.7749 36.0915 19.2364 36.3976 19.3917 36.7949C19.4743 36.999 19.4973 37.2222 19.458 37.4388C19.4186 37.6554 19.3186 37.8563 19.1695 38.0183C19.0204 38.1802 18.8284 38.2965 18.6158 38.3537C18.4031 38.4109 18.1786 38.4065 17.9684 38.3411C17.4361 38.179 16.9472 37.3796 16.5336 37.0165L6.29152 43.6396C3.65503 45.5512 2.46929 48.1548 2.3345 51.3864C2.30479 52.1446 2.22483 54.6523 2.43045 55.2369C2.48701 55.3753 2.57073 55.501 2.67668 55.6065C2.78263 55.712 2.90865 55.7953 3.04731 55.8513ZM64.7559 55.8513H70.8856C71.2306 55.8513 71.5573 55.3374 71.5938 55.02C71.7195 53.9329 71.6601 51.8409 71.5938 50.7058C71.506 49.3364 71.1203 48.0026 70.4637 46.7976C69.8071 45.5925 68.8954 44.5452 67.7922 43.7287L58.2857 37.5852C58.2578 37.5673 58.2253 37.5577 58.1921 37.5577C58.1588 37.5577 58.1263 37.5673 58.0984 37.5852C58.055 37.6126 57.7214 38.0419 57.6049 38.1424C57.2371 38.485 56.5859 39.1062 56.0787 39.145C55.8357 39.1493 55.5969 39.0807 55.3933 38.948C55.1896 38.8153 55.0305 38.6246 54.9364 38.4005C54.5252 37.3613 55.5533 36.9206 56.1519 36.3268C57.4138 35.0127 58.4291 33.4826 59.1493 31.8093C59.3961 31.2338 59.6497 30.1604 59.9489 29.7151C60.3213 29.1601 60.6229 29.3793 60.9839 29.1464C61.6693 28.7079 62.2176 26.4583 61.9732 25.6681C61.2878 25.8714 60.4424 25.5196 60.3122 24.7728C60.2094 24.1836 60.2162 23.6035 60.07 22.9823C59.8187 21.9157 59.0465 20.8104 59.7045 19.737C59.8555 19.4984 60.0642 19.3018 60.3114 19.1652C60.5586 19.0287 60.8363 18.9567 61.1187 18.9559C60.7028 17.7567 60.0254 16.665 59.1356 15.7597C58.2458 14.8543 57.1657 14.1581 55.9736 13.7213C54.4635 13.1686 52.8597 13.0522 51.2581 13.107L51.8156 16.9575C51.7743 17.3322 51.6511 17.6932 51.4546 18.0149C51.0799 18.5928 50.9771 18.2822 51.0091 19.1751C51.0581 19.4672 51.0825 19.7628 51.0822 20.059C53.6821 20.7076 53.5611 24.0032 52.9785 26.0678C52.5718 27.5089 51.811 28.8906 50.5385 29.7219C50.4379 29.7881 50.1386 29.8909 50.1044 29.9343C50.0701 29.9777 49.7822 30.9072 49.7023 31.1059C49.2583 32.2195 48.7314 33.2982 48.1259 34.333C47.8288 34.8423 47.461 35.3059 47.1914 35.8312C50.9634 37.9917 54.7696 40.1065 58.4616 42.3995C62.7568 45.4621 65.0803 50.5779 64.7559 55.8513ZM48.7336 18.9559H44.0934C42.4325 18.9559 39.7914 20.8652 38.1648 21.4681C36.152 22.2104 33.8239 20.2668 31.9665 19.5017C29.844 18.627 27.6256 19.045 25.3935 18.9582C25.2793 19.7621 25.5238 21.4567 25.1376 22.1213C24.7835 22.7311 23.9405 22.7585 23.3876 22.4068C23.2117 22.4068 23.1294 23.0211 23.1157 23.1787C23.0015 24.4668 23.5087 26.7895 24.5916 27.6139C25.0166 27.9359 25.526 27.8103 25.8756 28.3607C27.7764 34.7555 34.1003 43.2856 41.5323 38.3845C44.3219 36.5414 46.4261 33.1614 47.6255 30.0759C47.87 29.4501 48.0824 28.162 48.7199 27.904C49.3276 27.6619 49.4418 27.8309 49.9307 27.2051C50.8217 26.0632 51.3815 23.7474 50.7326 22.4091C49.8828 22.9229 48.9049 22.5438 48.7975 21.5138L48.7336 18.9559ZM28.3293 37.6308L16.9677 44.254C11.5714 48.0657 11.2812 53.773 11.5874 59.8846C11.5966 60.221 11.6317 60.5562 11.6924 60.8872C11.7562 61.0573 11.8591 61.21 11.9929 61.333C12.1267 61.456 12.2875 61.5458 12.4624 61.5952L61.354 61.6385C61.5976 61.6274 61.8314 61.5394 62.0219 61.3872C62.2123 61.235 62.3496 61.0263 62.4141 60.7912C62.4552 60.5629 62.4803 60.1266 62.4941 59.8777C62.8002 53.7684 62.5146 48.1045 57.1502 44.2722L45.7612 37.624C43.1773 40.5473 39.6064 42.6827 35.5511 42.0249C32.8095 41.5796 30.2187 39.7411 28.4504 37.6651L28.3293 37.6308Z" fill="#A29C7B"/>
<path d="M27.6446 42.009C27.869 41.9857 28.0954 42.0261 28.298 42.1254L37.0117 46.4762L45.8921 42.0729C46.1632 41.9786 46.4597 41.988 46.7243 42.0994C46.9888 42.2108 47.2027 42.4162 47.3246 42.6761C47.4465 42.9359 47.4677 43.2317 47.3841 43.5062C47.3006 43.7808 47.1182 44.0146 46.8722 44.1626L37.5486 48.8217C37.3888 48.9023 37.2123 48.9444 37.0334 48.9444C36.8544 48.9444 36.6779 48.9023 36.5182 48.8217L27.1168 44.1147C26.9286 43.9771 26.7858 43.7865 26.7065 43.5673C26.6273 43.3482 26.6152 43.1104 26.6719 42.8843C26.7285 42.6582 26.8513 42.4542 27.0246 42.2983C27.1979 42.1423 27.4137 42.0416 27.6446 42.009Z" fill="#A29C7B"/>
<path d="M13.595 54.7573C14.333 54.6066 14.9864 55.004 15.0869 55.7645C15.1486 56.2327 15.1486 58.1214 15.0275 58.5279C14.6871 59.6698 12.9234 59.5602 12.7566 58.279C12.6869 57.429 12.6937 56.5744 12.7771 55.7256C12.8026 55.5015 12.8938 55.29 13.0394 55.1176C13.1849 54.9453 13.3783 54.8199 13.595 54.7573Z" fill="#A29C7B"/>
<path d="M36.7027 54.7573C37.5069 54.6089 38.0986 55.0154 38.1923 55.8284C38.2625 56.6644 38.2625 57.5047 38.1923 58.3407C37.9821 59.6767 36.0493 59.6516 35.8711 58.2881C35.8094 57.8199 35.8117 55.8787 35.9442 55.4767C36.0042 55.3051 36.1044 55.1503 36.2363 55.0252C36.3682 54.9001 36.5281 54.8082 36.7027 54.7573Z" fill="#A29C7B"/>
<path d="M59.8097 54.7573C60.6048 54.5952 61.2056 55.0291 61.297 55.8284C61.3684 56.6643 61.3684 57.5048 61.297 58.3407C61.0846 59.6767 59.154 59.6516 58.9758 58.2881C58.9039 57.434 58.9039 56.5753 58.9758 55.7211C59.0083 55.4977 59.1041 55.2882 59.2519 55.1174C59.3996 54.9466 59.5932 54.8217 59.8097 54.7573Z" fill="#A29C7B"/>
<path d="M43.6612 55.0725C43.7554 55.1979 43.8323 55.3354 43.8896 55.4814C44.0381 55.9381 44.0381 58.1146 43.8896 58.5623C43.5309 59.6448 41.8334 59.5352 41.653 58.3932C41.5775 57.4643 41.5821 56.5306 41.6667 55.6024C41.8586 54.714 43.0603 54.4308 43.6612 55.0725Z" fill="#A29C7B"/>
<path d="M30.3861 55.0725C30.987 54.4308 32.1887 54.714 32.3715 55.6024C32.4553 56.5306 32.4591 57.4644 32.3829 58.3932C32.191 59.5352 30.5003 59.6311 30.1485 58.5623C30 58.1055 30 55.9473 30.1485 55.4814C30.207 55.3341 30.2871 55.1963 30.3861 55.0725Z" fill="#A29C7B"/>
<path d="M19.3887 54.7573C20.1792 54.6226 20.8395 55.0748 20.8669 55.8992C20.8898 56.5455 20.892 57.571 20.8669 58.2127C20.8007 59.6036 18.7399 59.7041 18.5548 58.3406C18.4817 57.4453 18.4817 56.5456 18.5548 55.6503C18.595 55.4378 18.6947 55.241 18.8423 55.083C18.9899 54.9249 19.1794 54.8119 19.3887 54.7573Z" fill="#A29C7B"/>
<path d="M54.0179 54.7573C54.7216 54.6134 55.4047 54.9583 55.5075 55.7028C55.5806 56.5981 55.5806 57.4979 55.5075 58.3931C55.2904 59.6858 53.2982 59.5853 53.2091 58.2561C53.1657 57.6372 53.1794 56.5821 53.1931 55.9449C53.1954 55.479 53.5312 54.8578 54.0179 54.7573Z" fill="#A29C7B"/>
<path d="M48.5798 54.7163C48.7273 54.7135 48.8739 54.7399 49.0112 54.7939C49.1485 54.8479 49.2738 54.9284 49.3799 55.0309C49.486 55.1334 49.5709 55.2558 49.6296 55.3911C49.6883 55.5263 49.7198 55.6719 49.7222 55.8193C49.761 56.3081 49.793 58.158 49.6788 58.56C49.3612 59.6585 47.5403 59.6151 47.4375 58.2357C47.3987 57.6967 47.3575 56.0683 47.4535 55.5978C47.5196 55.3483 47.6654 55.1272 47.8687 54.9681C48.072 54.809 48.3217 54.7206 48.5798 54.7163Z" fill="#A29C7B"/>
<path d="M25.4753 54.7162C25.7321 54.7197 25.9807 54.8068 26.1835 54.9642C26.3863 55.1216 26.5323 55.3409 26.5994 55.5886C26.6953 56.0454 26.6588 57.6966 26.6176 58.2265C26.508 59.5968 24.694 59.6539 24.3764 58.5508C24.2622 58.158 24.2941 56.3081 24.3307 55.8102C24.3391 55.5139 24.4639 55.233 24.6782 55.0282C24.8925 54.8234 25.1789 54.7113 25.4753 54.7162Z" fill="#A29C7B"/>
<path d="M43.1111 4.86685C44.3836 4.67044 44.9639 6.45183 43.8216 7.05476L37.2852 9.08966C37.0235 9.10216 36.7652 9.02612 36.5521 8.87381C36.3389 8.7215 36.1833 8.50182 36.1104 8.25025C36.0376 7.99867 36.0516 7.72987 36.1504 7.48727C36.2491 7.24467 36.4268 7.04241 36.6547 6.91317L43.1111 4.86685Z" fill="#A29C7B"/>
</svg>
