<svg width="86" height="64" viewBox="0 0 86 64" fill="none" xmlns="http://www.w3.org/2000/svg">
<path d="M83.0981 53.3472C83.2538 53.5002 85.2091 52.863 85.3213 54.6512C85.5709 58.641 81.7838 63.1264 77.8251 63.7294C58.7616 64.0902 39.5677 64.0902 20.5042 63.7294C16.9599 63.0282 13.9009 60.025 13.2163 56.4669C12.8569 54.5987 12.779 53.0411 15.2312 53.3472V34.7981L10.929 22.2509L1.64455 22.3651C1.33953 22.2851 1.05625 22.1382 0.815408 21.9352C0.574564 21.7321 0.382231 21.4779 0.252454 21.1912C-0.542047 19.4144 0.687484 18.6973 1.87809 17.7221C9.04692 11.8024 16.8133 6.49716 24.1356 0.773945C33.4704 0.45878 42.8418 0.230399 52.156 0.00201842C55.2631 -0.0733472 56.9643 1.97294 54.3861 4.27731C52.4972 5.96732 50.0129 7.42667 48.0439 9.0733C47.8561 9.36563 48.7308 11.4462 48.9895 11.8938L78.212 11.9783C81.2641 12.4282 83.0775 15.0751 83.1141 18.0441L83.0981 53.3472ZM51.563 2.91844C48.9643 2.95041 46.3587 2.87276 43.7577 2.91844C37.5207 3.00751 31.1968 3.30212 24.9507 3.47569L3.91815 19.6679C8.76758 19.4829 13.633 19.5788 18.4871 19.2431L23.3731 13.8533C23.6525 13.3806 23.1945 13.0197 23.1258 12.563C22.5374 8.93399 29.6467 6.36927 31.9249 8.74215C34.0405 10.9415 30.9197 13.5267 28.8637 14.2004C28.0898 14.4562 27.3983 14.4288 26.7022 14.6115C25.5162 14.9176 24.5546 16.8953 23.5426 17.6125L22.2604 19.323C25.0079 18.9896 27.7761 19.2522 30.5351 19.1152L51.563 2.91844ZM26.0268 11.976C26.6221 12.2501 29.5849 11.1287 29.6238 10.6948C29.6513 10.3637 29.1086 10.5418 28.9736 10.5532C28.0201 10.6098 27.1061 10.9529 26.3519 11.5375C26.1619 11.6791 25.9238 11.533 26.0268 11.976ZM45.7336 11.1219C45.4566 11.0876 45.2757 11.2658 45.0673 11.3936C41.2574 13.6889 37.1384 17.7381 33.3902 20.4215C32.2821 21.214 31.7028 21.7735 30.2443 21.8992C28.1836 22.075 25.8322 21.7941 23.7166 21.8855C22.819 21.9243 21.8528 22.2098 20.898 22.0636C21.127 22.4381 21.6765 24.674 21.7841 24.7676C21.8459 24.8224 22.8167 24.9412 23.1213 25.0599C24.0409 25.3912 24.803 26.0537 25.2576 26.9172C25.7123 27.7806 25.8266 28.7825 25.578 29.7258C25.3743 30.5662 24.4332 31.4706 24.3485 31.7561C24.2432 32.1649 25.2644 33.9896 23.6799 34.3276C21.8482 34.7182 22.0497 32.9003 21.7246 32.6901C21.6078 32.6125 21.056 32.649 20.7561 32.5463C18.4023 31.7332 17.1362 29.5179 18.1734 27.1245C18.3749 26.6677 19.1533 25.8616 19.1854 25.5647C19.2037 25.3888 18.1848 22.3673 18.0726 22.2326C17.6605 21.7393 14.6382 22.2737 13.8712 22.2326C15.0595 25.6697 16.099 29.3923 17.4659 32.7381C18.0245 34.1084 18.1528 34.4966 19.8013 34.6839C26.6038 35.4627 42.3748 29.8537 47.7142 25.4665C48.3553 24.9412 49.9053 23.5458 49.8298 22.6939L45.7336 11.1219ZM17.9719 37.107V53.0937C18.048 53.1878 18.1339 53.2736 18.2283 53.3495H80.0987C80.1938 53.2736 80.2805 53.1879 80.3574 53.0937V17.3589C80.3574 16.8634 79.801 15.7603 79.4118 15.3949C79.0225 15.0295 77.809 14.5384 77.3511 14.5384H50.0221C50.2053 16.2307 51.0799 17.9048 51.6111 19.5354C52.1927 21.3259 52.9643 22.566 52.1629 24.4547C50.1686 29.1548 37.8115 33.8777 33.0537 35.3097C28.2958 36.7416 22.9152 38.0343 17.9719 37.107ZM21.3514 27.5676C20.3439 27.8667 20.186 29.6367 21.3514 29.8925C23.6112 30.3881 23.3685 26.9624 21.3514 27.5676ZM82.4135 55.9119H15.9158C16.5271 58.8968 18.9862 60.9043 22.0016 61.208L75.9934 61.2195C79.1279 61.0847 81.7793 58.9813 82.4135 55.9119Z" fill="#A29C7B"/>
<path d="M44.3166 57.3256L53.8736 57.2959C55.4236 57.9925 54.9634 59.7853 53.3469 60.0113C51.8106 60.226 46.5193 60.226 44.9806 60.0113C43.442 59.7967 42.9291 58.1637 44.3166 57.3256Z" fill="#A29C7B"/>
</svg>
