<svg width="61" height="64" viewBox="0 0 61 64" fill="none" xmlns="http://www.w3.org/2000/svg">
<g clip-path="url(#clip0_266_654)">
<path d="M60.9936 58.7555V58.6798L54.5503 47.3831C54.5503 46.908 55.0698 46.5247 55.5756 46.1552C55.8283 45.9824 56.0641 45.7857 56.2796 45.5676C57.0884 44.684 56.9631 43.7728 56.8469 42.9695C56.774 42.4646 56.7079 41.9872 56.8834 41.5672C56.9816 41.3572 57.0999 41.1574 57.2365 40.9705C57.5329 40.5897 57.7338 40.1425 57.8221 39.6668C57.9542 38.6707 57.5715 38.0258 57.2365 37.4566C56.9805 37.1 56.8154 36.6854 56.7558 36.2494C56.7442 35.9408 56.7733 35.6321 56.8424 35.3313C56.9449 34.7598 57.0702 34.1149 56.6145 33.3437C56.3343 32.9063 55.9626 32.5357 55.5254 32.2581C55.2508 32.0813 55.0074 31.8594 54.8055 31.6017C54.5891 31.2435 54.435 30.8508 54.3498 30.4404C54.1607 29.7059 53.9442 28.8751 52.8711 28.3747C52.5653 28.244 52.2469 28.1455 51.921 28.081C51.581 28.0208 51.2521 27.9086 50.9458 27.7482C50.6481 27.517 50.3954 27.2322 50.2008 26.9081C49.8978 26.4789 49.5833 26.036 49.1185 25.7927C48.4145 25.4278 47.788 25.5402 47.2343 25.6412C46.9722 25.6986 46.705 25.7293 46.4369 25.733C45.8969 25.733 45.5255 25.5035 45.088 25.2304C44.4569 24.8425 43.7415 24.4041 42.5043 24.7714C42.1837 24.8799 41.8828 25.0403 41.6134 25.2465C41.3805 25.4366 41.1103 25.575 40.8206 25.6527C40.3889 25.7548 39.9375 25.7333 39.5173 25.5907C39.0047 25.3612 38.2391 25.5907 38.1639 25.6114C37.3938 25.8202 36.9518 26.4216 36.569 26.954C36.3691 27.2626 36.1223 27.5375 35.8377 27.7688C35.4804 27.9788 35.0907 28.1269 34.6848 28.2072C34.1357 28.3518 33.5684 28.5033 33.1537 28.8957C32.739 29.2882 32.5408 29.9125 32.3654 30.5023C32.2703 30.8974 32.1167 31.2757 31.9097 31.6247C31.6791 31.9061 31.4159 32.1588 31.1259 32.3775L30.9619 32.5152C30.4857 32.382 30.0163 32.2375 29.5584 32.0745C29.6859 31.3446 29.4011 30.1259 29.5948 29.4695C29.6677 29.2193 30.4401 28.6134 30.6725 28.3059C31.9575 26.6144 32.7618 24.5166 32.7231 22.3592C34.2473 22.4877 35.5665 22.2329 36.4346 20.8696C37.1181 19.7955 37.1569 16.7384 36.5873 15.6229C36.4073 15.2718 35.9356 14.9091 35.881 14.6131C35.1678 10.8559 37.5693 5.40038 33.2653 2.94458C31.5337 1.95537 28.4807 1.92553 26.6807 2.76326C25.9972 1.20027 24.1881 0.238604 22.5431 0.112372C17.8086 -0.266327 12.4406 0.0481075 10.9209 5.4853C10.1326 8.30373 11.1488 11.9599 10.6475 14.6085C10.5906 14.9046 10.1212 15.2672 9.94121 15.6183C9.39211 16.6833 9.40806 19.8666 10.0642 20.8972C10.8662 22.1503 12.411 22.5267 13.8054 22.3592C13.8017 24.29 14.3783 26.1768 15.4595 27.7711C15.7238 28.1544 16.8813 29.2974 16.9314 29.4649C17.125 30.1213 16.8402 31.3401 16.9656 32.0699C12.5523 33.6054 7.22989 33.5732 3.68468 36.9815C1.76853 38.8245 0.324018 41.8518 0.132632 44.5256C-0.288875 50.3897 0.458445 56.7542 0.132632 62.671C0.137457 62.8736 0.201992 63.0702 0.318029 63.2357C0.434065 63.4012 0.596357 63.5282 0.784258 63.6006L33.074 63.6488C33.2003 63.8256 33.3883 63.9477 33.6003 63.9907C33.6439 63.9983 33.6881 64.0021 33.7324 64.0022C33.8691 63.9956 34.0029 63.961 34.1259 63.9007C34.2489 63.8403 34.3584 63.7554 34.4478 63.651C34.5251 63.5744 34.596 63.4915 34.6597 63.4032L36.9381 59.4532L40.7841 52.756C41.0658 52.8791 41.3391 53.0209 41.6021 53.1806C42.3152 53.596 43.0534 54.0252 44.1607 53.6626C44.1995 53.6488 44.2427 53.6328 44.2929 53.6098C44.4774 53.5272 44.7326 53.3803 45.0174 53.2242C45.3022 53.0682 45.6873 52.8478 45.9083 52.7652C46.0267 52.935 46.1817 53.1829 46.3639 53.4905C46.9335 54.4384 47.7788 55.9463 48.6013 57.4197C51.5109 62.6182 52.224 63.7704 52.6159 63.9035C52.745 63.9565 52.8835 63.9826 53.0229 63.9803C53.1623 63.9779 53.2998 63.9471 53.427 63.8897C53.5326 63.8321 53.6252 63.7533 53.6993 63.6582C53.7734 63.563 53.8273 63.4536 53.8577 63.3366L54.9285 58.2873H54.9741L55.0401 58.3034C55.744 58.4766 56.4352 58.6982 57.1089 58.9667C57.898 59.2864 58.7139 59.5345 59.5469 59.708C59.9706 59.7769 60.4445 59.8067 60.7499 59.5175C60.847 59.4187 60.9197 59.2982 60.9621 59.1658C61.0044 59.0335 61.0152 58.8929 60.9936 58.7555ZM29.5173 40.8534C29.7179 41.1324 29.8718 41.4425 29.973 41.7715C30.0264 42.153 30.0164 42.5408 29.9434 42.919C29.8728 43.4676 29.7976 44.0322 30.0072 44.6335C30.2009 45.1912 30.7272 45.6457 31.2353 46.0817C31.7434 46.5178 32.2423 46.9493 32.2218 47.3257C32.1576 47.5528 32.0642 47.7703 31.9439 47.9729L31.8573 48.1382C31.3082 49.2353 29.4011 52.4806 27.8678 55.0534L26.6807 40.3439C27.5716 40.6469 28.1138 41.9505 29.187 41.2L29.4763 40.7662L29.5173 40.8534ZM29.8591 34.3513C29.8562 34.7033 29.8829 35.055 29.9389 35.4025C29.9803 35.6746 30.0062 35.949 30.0163 36.2241L28.3895 38.7488L25.243 36.293C25.1952 36.1139 25.3433 36.0635 25.4549 35.99C25.8081 35.7284 28.3554 34.1906 28.6219 34.1401C28.9546 34.0988 29.4057 34.2182 29.8591 34.3605V34.3513ZM23.3223 34.7897C22.7391 34.831 19.8181 32.6598 19.0594 32.3132V30.9614C20.5563 31.4938 21.9735 31.9552 23.598 31.8932C24.9491 31.8427 26.2068 31.3883 27.4713 30.9614C27.403 31.301 27.5807 32.1502 27.444 32.3889C27.3073 32.6276 23.5593 34.7828 23.3223 34.7988V34.7897ZM24.3704 39.9399C23.7666 40.3714 22.6548 40.3508 22.092 39.8872C21.9074 39.738 22.0533 38.5789 22.1558 38.3632C22.457 38.0859 22.7742 37.8268 23.1059 37.5874C23.3907 37.5071 24.3021 38.1681 24.3932 38.3632C24.5208 38.657 24.6575 39.7449 24.3795 39.9491L24.3704 39.9399ZM34.7326 16.5639C34.9149 16.9977 34.9081 19.3571 34.6848 19.7588C34.302 20.4473 33.3701 20.204 32.7276 20.2385V16.0016C33.3884 16.0246 34.4045 15.7997 34.7326 16.5639ZM13.8031 20.2362C13.1447 20.2132 12.1239 20.4358 11.8004 19.6716C11.6204 19.2401 11.6204 16.8807 11.8482 16.479C12.2287 15.7905 13.1629 16.0361 13.8031 16.0016V20.2362ZM13.835 13.3209C13.794 13.477 13.835 13.8603 13.8031 13.8809C13.7712 13.9016 12.9487 13.8465 12.7528 13.8809V6.80041C12.7528 5.19381 14.6211 3.16261 16.0793 2.60489C17.4281 2.09078 20.9118 2.09078 22.4178 2.22849C23.5707 2.33407 24.7441 3.14655 25.1519 4.24822C25.4754 5.14332 25.1519 6.65582 26.6124 6.46762C27.9794 6.29089 26.8721 4.54888 28.5946 4.3515C30.2009 4.17018 32.2742 4.27346 33.238 5.7653C33.3724 5.97187 33.7871 6.88304 33.7871 7.06665V13.8832H32.7345V11.4343C32.7345 11.2622 32.2788 10.8284 32.0851 10.7664C31.0667 10.4428 30.2419 10.9661 29.0115 10.1536C27.8495 9.38704 27.3734 6.91287 25.8537 7.67945C24.3955 8.41619 23.5752 9.76344 21.6659 10.3464C18.7017 11.2461 14.8763 9.40999 13.835 13.3232V13.3209ZM15.9357 13.578C16.2068 12.3547 19.1255 12.9078 20.1758 12.8206C21.3848 12.6861 22.5639 12.3535 23.6664 11.836C24.0833 11.6294 26.1293 10.0871 26.2729 10.1857C27.0794 11.7923 28.868 12.7678 30.6247 12.8229C30.4424 16.0774 30.8707 19.6004 30.6247 22.8228C30.5422 24.0647 30.1513 25.2658 29.4879 26.3158C28.8245 27.3658 27.9098 28.2311 26.8279 28.8323C25.746 29.4334 24.5315 29.7511 23.296 29.7562C22.0604 29.7612 20.8434 29.4535 19.7566 28.8613C14.1267 25.8547 16.3185 18.8201 15.9357 13.5803V13.578ZM17.9111 34.1585C18.1048 34.1952 21.2513 35.9946 21.2945 36.1897C21.3378 36.3848 21.0667 36.5363 20.9619 36.6487C20.1796 37.3714 19.3465 38.0365 18.4693 38.6386C18.3668 38.7029 18.3349 38.8245 18.1435 38.7694L15.5119 34.668C16.1932 34.5969 17.2709 34.0414 17.9111 34.1608V34.1585ZM18.1389 61.5372H11.7024V48.5008C11.7024 47.5828 9.59944 47.5828 9.59944 48.5008V61.5395H2.24017V44.5256C2.43839 42.3613 3.73936 39.8183 5.33197 38.3724C7.64001 36.2792 10.4584 36.0015 13.3338 35.1867L17.3552 41.2115C18.4169 41.9597 18.9501 40.6583 19.8478 40.3554L18.1389 61.5372ZM20.2419 61.5372L21.8869 42.0767C22.9441 42.5977 23.6481 42.5059 24.7076 42.0767L26.0131 58.1657L25.7853 58.5352L25.7397 58.6086V58.6981C25.7248 58.8773 25.7519 59.0574 25.8188 59.224C25.8857 59.3907 25.9905 59.5391 26.1248 59.6575L26.2774 61.5326L20.2419 61.5372ZM28.3895 61.5372L28.2186 59.4119L31.7889 58.347C31.9507 59.0011 32.0783 59.6988 32.2013 60.3782C32.2697 60.7615 32.3403 61.1516 32.4178 61.5372H28.3895ZM36.9336 55.6112L34.8306 59.2421L34.1927 60.3438C34.1152 60.0316 34.0195 59.6988 33.9215 59.3568C33.6937 58.5811 33.4476 57.6997 33.5046 57.2315C33.5387 56.9515 33.9192 56.4259 34.2542 55.9623C34.4547 55.6869 34.6574 55.4046 34.8306 55.1269C35.1314 54.6495 35.3455 54.179 35.3159 53.7498V53.7062C35.2967 53.5672 35.2422 53.4356 35.1575 53.3242C35.0729 53.2128 34.961 53.1254 34.8329 53.0704C34.7189 53.0224 34.5964 52.9982 34.4729 52.9993C34.4194 52.9994 34.3661 53.004 34.3134 53.0131C33.8577 53.0796 33.4294 53.72 32.6411 55.0626C32.407 55.4919 32.1428 55.9038 31.8504 56.2951L28.8042 57.2132L33.2289 49.5061L33.336 49.6025C33.4971 49.7595 33.6797 49.8924 33.8782 49.9973C34.1834 50.136 34.5039 50.2377 34.8329 50.3002H34.8693C35.1961 50.3525 35.5119 50.4595 35.8035 50.6169C36.0224 50.7897 36.2045 51.0051 36.3389 51.2504C36.4466 51.4264 36.5677 51.5937 36.7012 51.7507C36.7809 51.8403 36.8584 51.9252 36.929 52.0032C37.4075 52.4875 37.8632 52.7675 38.5444 52.8042L36.9336 55.6112ZM46.9586 50.9406C46.7695 50.9084 46.5781 50.8763 46.3822 50.8556C46.1318 50.8236 45.8784 50.8236 45.628 50.8556C45.1864 50.96 44.7708 51.1545 44.4068 51.4271L44.302 51.496C44.0432 51.6987 43.7374 51.8314 43.4134 51.8816C43.1126 51.8816 42.7618 51.6521 42.3904 51.4225C42.0258 51.1617 41.6152 50.9732 41.1805 50.8671C41.0299 50.8425 40.8775 50.8309 40.7249 50.8327C40.4423 50.8327 40.1439 50.8625 39.8522 50.8924C39.2553 50.9543 38.5786 51.0209 38.3097 50.7707C38.1562 50.6122 38.023 50.4348 37.9133 50.2428C37.7299 49.9249 37.4994 49.637 37.2298 49.389C37.1377 49.3071 37.0411 49.2305 36.9404 49.1595C36.5336 48.8849 36.0754 48.6966 35.5939 48.6064C35.3387 48.5544 35.0892 48.4776 34.8488 48.3769L34.7623 48.3379C34.3521 48.1313 34.2428 47.7274 34.0992 47.0893C34.0328 46.7132 33.9139 46.3485 33.7461 46.006C33.5076 45.5761 33.1621 45.2162 32.7436 44.9617C32.5772 44.8514 32.4181 44.7302 32.2674 44.5991C31.6203 44.0115 31.6932 43.6168 31.8117 42.9627C31.9115 42.5319 31.9393 42.0874 31.8937 41.6475C31.8208 41.0646 31.495 40.5413 31.2102 40.0777C31.0165 39.7632 30.8138 39.4373 30.8046 39.2445C30.7955 39.0517 31.0325 38.6455 31.217 38.3058C31.3401 38.0763 31.4654 37.8468 31.5679 37.6287C31.6595 37.4375 31.7298 37.2366 31.7775 37.0297C31.8813 36.5542 31.8813 36.0616 31.7775 35.5861C31.7363 35.3662 31.7097 35.1439 31.6978 34.9205C31.6682 34.2732 32.0008 34.0024 32.5864 33.5962C32.83 33.4352 33.0588 33.2523 33.2699 33.0499C33.3738 32.9508 33.467 32.8408 33.5479 32.7217C33.8055 32.2999 33.981 31.8326 34.0651 31.3446C34.2337 30.6332 34.3521 30.2223 34.883 30.0112C35.1516 29.908 35.4273 29.8244 35.7078 29.761C36.425 29.6429 37.0787 29.276 37.5556 28.7236C37.6899 28.5618 37.8118 28.3899 37.9201 28.2095C38.091 27.941 38.3508 27.5347 38.5353 27.4911C38.9055 27.4493 39.2799 27.4664 39.6449 27.5416C40.1082 27.6175 40.5797 27.6291 41.0461 27.576C41.5284 27.4687 41.9862 27.2701 42.3949 26.9908C42.764 26.7613 43.1104 26.5685 43.3861 26.573C43.6617 26.5776 44.0035 26.7842 44.3407 26.9977C44.727 27.2783 45.1669 27.4753 45.6326 27.576C46.0878 27.6251 46.5476 27.6128 46.9996 27.5393C47.4008 27.4624 47.8128 27.4624 48.214 27.5393C48.3986 27.5967 48.713 28.0236 48.9431 28.3357C49.1826 28.7068 49.4786 29.0375 49.8203 29.3157C50.2127 29.5508 50.643 29.7147 51.0917 29.8C51.7 29.9538 52.2309 30.0869 52.4359 30.5322C52.544 30.7689 52.6206 31.0189 52.6638 31.2758C52.7414 31.7795 52.9298 32.2594 53.2151 32.6804C53.4969 33.0353 53.8249 33.3503 54.1903 33.6168C54.5708 33.9244 55.0037 34.271 55.0652 34.5349C55.084 34.8238 55.0594 35.114 54.9923 35.3956C54.8805 35.9016 54.8521 36.4226 54.908 36.9379C55.0084 37.3711 55.1918 37.7804 55.448 38.1429C55.6895 38.5353 55.9173 38.9048 55.9037 39.2904C55.9037 39.5888 55.6758 39.9399 55.4594 40.3095C55.2029 40.6829 55.0168 41.1007 54.9103 41.542C54.8577 41.9906 54.8715 42.4446 54.9513 42.8892C55.0368 43.3071 55.0368 43.7382 54.9513 44.1561C54.8989 44.3306 54.4614 44.6404 54.1721 44.8447C53.866 45.0373 53.5857 45.2687 53.3382 45.5332C52.9554 46.0106 52.805 46.6119 52.6729 47.1398C52.6149 47.4899 52.4895 47.8251 52.3038 48.1267C52.1078 48.3562 51.6202 48.4779 51.1646 48.5857C50.7374 48.6622 50.3256 48.8088 49.9456 49.0195C49.5663 49.3133 49.2416 49.6722 48.9864 50.0799C48.7062 50.4586 48.4191 50.8488 48.1252 50.9635C47.8312 51.0783 47.3915 51.0163 46.9495 50.952L46.9586 50.9406ZM54.9513 56.2905C54.7371 56.0909 54.368 55.4528 54.0695 54.9364C53.4088 53.7888 52.9782 53.0865 52.502 53.0177C52.3501 52.9955 52.1952 53.0107 52.0504 53.0618C51.9056 53.113 51.7752 53.1986 51.6704 53.3114C51.5704 53.4166 51.4974 53.5447 51.4577 53.6847C51.418 53.8246 51.4128 53.9723 51.4425 54.1147C51.5337 54.5531 52.003 55.2187 52.502 55.9233C52.8141 56.364 53.2835 57.0296 53.3108 57.2109C53.3222 57.5093 52.8551 59.5427 52.5931 60.5595L48.2641 52.8203C49.073 52.7514 49.5788 52.2672 50.1256 51.6566C50.2446 51.5073 50.3513 51.3484 50.4446 51.1815C50.5576 50.9705 50.7128 50.7853 50.9003 50.6376C51.211 50.4735 51.5455 50.3596 51.8914 50.3002C52.1752 50.2412 52.4541 50.1599 52.7253 50.0569C52.9736 49.9466 53.2077 49.8064 53.4225 49.6392C53.4939 49.5857 53.5622 49.5375 53.6275 49.4946L58.0158 57.2269L54.9513 56.2905Z" fill="#A29C7B"/>
<path d="M53.7718 42.3798C54.2973 40.6615 54.3893 38.8383 54.0397 37.0751C53.69 35.3119 52.9096 33.6643 51.7691 32.2812C50.6296 30.8876 49.1676 29.7974 47.5116 29.1066C45.8557 28.4159 44.0566 28.1457 42.2726 28.3198C40.6471 28.468 39.0776 28.9929 37.6868 29.8532C36.2959 30.7136 35.1214 31.8863 34.2549 33.2796C34.0073 33.6718 33.785 34.0796 33.5896 34.5006C33.4802 34.7301 33.38 34.9711 33.2888 35.2075C32.6306 36.8777 32.3915 38.6856 32.5926 40.4711C32.7937 42.2566 33.4288 43.9646 34.4417 45.4438C35.4226 46.9014 36.7442 48.0938 38.2901 48.9158C39.836 49.7379 41.5589 50.1645 43.307 50.1581C43.6351 50.1581 43.9632 50.1443 44.2936 50.1144C44.5419 50.0915 44.7925 50.0617 45.0409 50.0226C45.4925 49.9525 45.9392 49.8536 46.3783 49.7266C48.1289 49.2357 49.7263 48.3036 51.0199 47.0181C52.3136 45.7327 53.2606 44.1363 53.7718 42.3798ZM46.3852 47.7573C45.7085 47.9932 45.0063 48.1473 44.2936 48.2164C44.1842 48.2164 44.0657 48.237 43.9609 48.2439C42.4284 48.3481 40.8949 48.0542 39.5075 47.3902C38.1201 46.7263 36.9251 45.7145 36.0372 44.452C35.1493 43.1894 34.598 41.7183 34.4364 40.1796C34.2747 38.6409 34.508 37.0861 35.1138 35.6642C35.148 35.5839 35.1822 35.5059 35.2186 35.4347C35.4894 34.8344 35.8232 34.2651 36.2143 33.7363C37.0609 32.6078 38.1579 31.6945 39.4175 31.0693C40.6771 30.4442 42.0645 30.1245 43.4686 30.1359C44.8728 30.1473 46.2548 30.4894 47.5043 31.135C48.7537 31.7805 49.8359 32.7115 50.6644 33.8536C51.4929 34.9957 52.0446 36.3172 52.2755 37.7124C52.5065 39.1077 52.4102 40.538 51.9943 41.8891C51.5785 43.2401 50.8547 44.4745 49.8807 45.4934C48.9068 46.5124 47.7097 47.2877 46.3852 47.7573Z" fill="#A29C7B"/>
<path d="M50.092 36.6075C49.7685 36.2632 48.9528 36.1622 47.6632 36.0245C47.1077 35.9862 46.5561 35.9033 46.0137 35.7767L44.2593 32.3041L44.1864 32.2559C43.4527 31.7464 42.8922 32.0011 42.5505 32.3018L42.5003 32.3454L40.8872 35.5104L40.73 35.818C40.3478 35.8925 39.9612 35.9423 39.5726 35.9671C38.8426 36.0091 38.1184 36.1229 37.4104 36.3068C36.9387 36.456 36.5674 36.6763 36.4033 37.016C36.2393 37.3557 36.2939 37.7344 36.5582 38.1636C36.7656 38.4918 37.3375 39.0174 37.9435 39.5751C38.3855 39.9813 39.0508 40.5941 39.1488 40.7732C39.1853 41.1151 39.044 41.7211 38.9073 42.3063C38.6475 43.4264 38.3764 44.5854 38.9187 45.2051C39.1784 45.5012 39.5771 45.6228 40.1035 45.5677H40.1695L43.3753 43.8372C43.6919 43.9627 43.9969 44.1163 44.2866 44.2962C44.4826 44.4087 44.6808 44.5257 44.8494 44.6267C45.3452 44.9376 45.8587 45.2189 46.3873 45.469C46.505 45.5224 46.628 45.5632 46.7541 45.5907C46.8411 45.6088 46.9296 45.618 47.0184 45.6182C47.2702 45.6236 47.5164 45.5431 47.717 45.3898C47.9176 45.2364 48.0608 45.0193 48.1235 44.7736C48.2739 44.2388 48.0597 43.2909 47.8318 42.2857C47.7061 41.7889 47.6125 41.2844 47.5516 40.7755C47.8909 40.3744 48.2653 40.005 48.6703 39.6715C49.8346 38.6272 50.5363 37.9479 50.4475 37.3328C50.3803 37.0687 50.2593 36.8217 50.092 36.6075ZM47.1643 38.5262C46.4807 39.1115 45.8405 39.6738 45.6992 40.1902C45.599 40.562 45.6992 41.1427 45.8724 41.9643C45.8982 42.0852 45.9256 42.2115 45.9544 42.343C46.0182 42.6276 46.082 42.9168 46.1276 43.1624C45.82 43.027 45.362 42.7608 45.0522 42.5817C44.3983 42.1985 43.9403 41.9414 43.6031 41.8657C43.5404 41.8506 43.4762 41.8429 43.4117 41.8427C42.9287 41.8427 42.2725 42.2398 41.589 42.6575C41.2746 42.8503 40.9556 43.0477 40.6776 43.1808C40.7163 42.8801 40.7847 42.4716 40.8394 42.1365C41.0399 40.9361 41.1196 40.383 41.0399 40.1236C40.9601 39.8643 40.5842 39.4833 39.5133 38.4803C39.3288 38.3082 39.1215 38.1154 38.9551 37.9547L39.3949 37.9088C39.7776 37.8698 40.1354 37.8308 40.4589 37.7849C41.1994 37.6839 41.7599 37.5554 42.031 37.3396C42.2188 37.147 42.3687 36.9204 42.473 36.6718C42.612 36.4009 42.776 36.0475 42.9856 35.593C43.111 35.3176 43.2636 34.9825 43.3889 34.7301C43.5211 34.9871 43.6464 35.2924 43.7671 35.5907C44.0542 36.2976 44.3504 37.0275 44.8403 37.3924C45.3301 37.7574 46.303 37.8652 47.2121 37.9433C47.3989 37.9593 47.5812 37.9754 47.7498 37.9938C47.5767 38.1636 47.3648 38.3472 47.1643 38.5262Z" fill="#A29C7B"/>
</g>
<defs>
<clipPath id="clip0_266_654">
<rect width="61" height="64" fill="white"/>
</clipPath>
</defs>
</svg>
