<svg width="48" height="48" viewBox="0 0 48 48" fill="none" xmlns="http://www.w3.org/2000/svg">
<rect width="48" height="48" rx="16" fill="#A29C7B" fill-opacity="0.1"/>
<path d="M19 20.5L21 18.5L19 16.5L17 18.5L19 20.5ZM16 26C15.45 26 14.9792 25.8042 14.5875 25.4125C14.1958 25.0208 14 24.55 14 24V15C14 14.45 14.1958 13.9792 14.5875 13.5875C14.9792 13.1958 15.45 13 16 13H32C32.55 13 33.0208 13.1958 33.4125 13.5875C33.8042 13.9792 34 14.45 34 15V24C34 24.55 33.8042 25.0208 33.4125 25.4125C33.0208 25.8042 32.55 26 32 26H28.775C28.875 25.6667 28.9417 25.3333 28.975 25C29.0083 24.6667 29.0083 24.3333 28.975 24H32V15H16V24H19.025C18.9917 24.3333 18.9917 24.6667 19.025 25C19.0583 25.3333 19.125 25.6667 19.225 26H16ZM28.5 19C28.9167 19 29.2708 18.8542 29.5625 18.5625C29.8542 18.2708 30 17.9167 30 17.5C30 17.0833 29.8542 16.7292 29.5625 16.4375C29.2708 16.1458 28.9167 16 28.5 16C28.0833 16 27.7292 16.1458 27.4375 16.4375C27.1458 16.7292 27 17.0833 27 17.5C27 17.9167 27.1458 18.2708 27.4375 18.5625C27.7292 18.8542 28.0833 19 28.5 19ZM17 35V32.9C17 32.3167 17.1625 31.775 17.4875 31.275C17.8125 30.775 18.2417 30.4 18.775 30.15C19.5917 29.7667 20.4417 29.4792 21.325 29.2875C22.2083 29.0958 23.1 29 24 29C24.9 29 25.7917 29.0958 26.675 29.2875C27.5583 29.4792 28.4083 29.7667 29.225 30.15C29.7583 30.4 30.1875 30.775 30.5125 31.275C30.8375 31.775 31 32.3167 31 32.9V35H17ZM19 33H29V32.9C29 32.7 28.9417 32.5167 28.825 32.35C28.7083 32.1833 28.5583 32.0583 28.375 31.975C27.675 31.6583 26.9583 31.4167 26.225 31.25C25.4917 31.0833 24.75 31 24 31C23.25 31 22.5083 31.0833 21.775 31.25C21.0417 31.4167 20.325 31.6583 19.625 31.975C19.4417 32.0583 19.2917 32.1833 19.175 32.35C19.0583 32.5167 19 32.7 19 32.9V33ZM24 28C23.0333 28 22.2083 27.6583 21.525 26.975C20.8417 26.2917 20.5 25.4667 20.5 24.5C20.5 23.5333 20.8417 22.7083 21.525 22.025C22.2083 21.3417 23.0333 21 24 21C24.9667 21 25.7917 21.3417 26.475 22.025C27.1583 22.7083 27.5 23.5333 27.5 24.5C27.5 25.4667 27.1583 26.2917 26.475 26.975C25.7917 27.6583 24.9667 28 24 28ZM24 26C24.4167 26 24.7708 25.8542 25.0625 25.5625C25.3542 25.2708 25.5 24.9167 25.5 24.5C25.5 24.0833 25.3542 23.7292 25.0625 23.4375C24.7708 23.1458 24.4167 23 24 23C23.5833 23 23.2292 23.1458 22.9375 23.4375C22.6458 23.7292 22.5 24.0833 22.5 24.5C22.5 24.9167 22.6458 25.2708 22.9375 25.5625C23.2292 25.8542 23.5833 26 24 26Z" fill="#A29C7B"/>
</svg>
