<svg width="80" height="79" viewBox="0 0 80 79" fill="none" xmlns="http://www.w3.org/2000/svg">
<g clip-path="url(#clip0_23_2463)">
<path d="M56.4133 78.9911H23.5977V71.1294C23.6427 62.9379 30.3138 56.5559 38.6595 55.6556C35.6873 55.3253 32.9556 53.881 31.0252 51.6192C29.0949 49.3574 28.1124 46.4497 28.2794 43.4932C28.4465 40.5367 29.7504 37.7556 31.9236 35.7211C34.0967 33.6866 36.9741 32.553 39.965 32.553C42.9558 32.553 45.8332 33.6866 48.0064 35.7211C50.1795 37.7556 51.4834 40.5367 51.6505 43.4932C51.8176 46.4497 50.835 49.3574 48.9047 51.6192C46.9743 53.881 44.2426 55.3253 41.2704 55.6556C49.8142 56.547 56.3413 63.2232 56.3593 71.5929L56.4133 78.9911Z" fill="#A29C7B"/>
<path d="M18.9251 71.4325V79H4.85352V76.0674C4.85352 70.2737 9.45401 65.7635 15.3779 64.9434C12.9545 64.5993 10.7589 63.3419 9.24917 61.4337C7.73949 59.5254 7.03236 57.1138 7.27531 54.7019C7.5572 52.2873 8.78477 50.0787 10.6941 48.5508C12.6035 47.0229 15.0421 46.2978 17.4858 46.5314C19.9295 46.7649 22.183 47.9383 23.762 49.7996C25.3409 51.6608 26.1191 54.0612 25.9294 56.4846C23.597 58.5869 21.7538 61.1659 20.5276 64.0432C19.5918 64.4714 18.6013 64.7712 17.5836 64.9345L20.0144 65.505C19.3875 67.4243 19.0212 69.4176 18.9251 71.4325Z" fill="#A29C7B"/>
<path d="M61.0584 71.9496C61.0269 69.7614 60.6565 67.591 59.96 65.5141L62.4088 64.9168C61.3941 64.7535 60.4066 64.4536 59.4739 64.0255C58.2585 61.1552 56.4133 58.5885 54.0721 56.5115C53.8095 54.0683 54.5379 51.6219 56.0971 49.7104C57.6563 47.7989 59.9186 46.5789 62.3863 46.3189C64.854 46.0589 67.325 46.7801 69.2557 48.3238C71.1863 49.8675 72.4185 52.1073 72.6812 54.5505C72.9638 56.9854 72.275 59.4335 70.7616 61.3731C69.2481 63.3127 67.0296 64.5906 64.5785 64.9347C70.6285 65.7547 75.112 70.4521 75.121 76.3617V79.0357H61.0584V71.9496Z" fill="#A29C7B"/>
<path d="M79.9993 26.0184V26.0363L72.4279 32.7748L74.0934 42.437L65.3336 37.9001L56.5377 42.437L58.1852 32.757L51.127 25.9382L60.9131 24.5121L65.3066 15.7323L69.718 24.5121L79.1531 25.8045L79.9993 26.0184Z" fill="#A29C7B"/>
<path d="M0 26.0363V25.8847L10.2813 24.521L14.6928 15.7323L19.0862 24.5031L28.8814 25.9382L21.8051 32.7927L23.4706 42.4281L14.6928 37.9001L5.90592 42.437L7.56246 32.7392L0 26.0363Z" fill="#A29C7B"/>
<path d="M40.0184 22.15L31.2225 26.6869L32.87 17.0158L25.8027 10.197L35.5979 8.76193L39.9823 0L44.3938 8.75302L54.207 10.1881L47.1217 17.0425L48.7782 26.6869L40.0184 22.15Z" fill="#A29C7B"/>
</g>
<defs>
<clipPath id="clip0_23_2463">
<rect width="80" height="79" fill="white"/>
</clipPath>
</defs>
</svg>
