<svg width="22" height="22" viewBox="0 0 22 22" fill="none" xmlns="http://www.w3.org/2000/svg">
<path d="M22 11.253C22 10.5053 21.9382 9.75351 21.8062 9.01791H11.2216V13.2537H17.2829C17.0314 14.6198 16.2232 15.8283 15.0398 16.5962V19.3446H18.656C20.7795 17.4288 22 14.5996 22 11.253Z" fill="#F5F5F5"/>
<path d="M11.2216 22C14.2481 22 16.8005 21.0259 18.6601 19.3446L15.0439 16.5962C14.0378 17.2671 12.739 17.647 11.2257 17.647C8.29818 17.647 5.81594 15.711 4.9253 13.1082H1.1937V15.9414C3.09867 19.6558 6.97871 22 11.2216 22Z" fill="#F5F5F5"/>
<path d="M4.92119 13.1081C4.45113 11.742 4.45113 10.2628 4.92119 8.89665V6.06338H1.19371C-0.397895 9.17148 -0.397906 12.8333 1.1937 15.9414L4.92119 13.1081Z" fill="#F5F5F5"/>
<path d="M11.2216 4.35371C12.8215 4.32946 14.3677 4.91955 15.5264 6.00274L18.7302 2.8623C16.7015 0.995012 14.009 -0.0315927 11.2216 0.000741252C6.97871 0.000741252 3.09868 2.34497 1.19371 6.06338L4.92119 8.89665C5.8077 6.28972 8.29405 4.35371 11.2216 4.35371Z" fill="#F5F5F5"/>
</svg>
