<svg width="22" height="22" viewBox="0 0 22 22" fill="none" xmlns="http://www.w3.org/2000/svg">
<path d="M20.4391 16.2869C17.0323 14.6125 16.4893 12.0272 16.4651 11.8354C16.4359 11.6031 16.4027 11.4205 16.6551 11.1842C16.8985 10.956 17.9783 10.2774 18.2779 10.0651C18.7731 9.71354 18.9911 9.36256 18.8304 8.93111C18.718 8.63264 18.4442 8.52021 18.1559 8.52021C18.0649 8.52049 17.9743 8.53082 17.8855 8.55102C17.3414 8.67087 16.813 8.94766 16.5073 9.02242C16.4705 9.03204 16.4328 9.03722 16.3948 9.03783C16.2318 9.03783 16.17 8.96421 16.1857 8.76504C16.224 8.16124 16.3049 6.98273 16.211 5.88185C16.0823 4.36721 15.6012 3.61673 15.0306 2.95301C14.7547 2.63113 13.4731 1.24832 10.9999 1.24832C8.52667 1.24832 7.24679 2.63113 6.97248 2.94901C6.40027 3.61274 5.91969 4.36321 5.79209 5.87786C5.69822 6.97874 5.78254 8.15667 5.81738 8.76104C5.82863 8.95052 5.77129 9.03384 5.60829 9.03384C5.57035 9.03318 5.53262 9.02801 5.49587 9.01843C5.19065 8.94367 4.66228 8.66688 4.11818 8.54703C4.02942 8.52683 3.93877 8.51649 3.84781 8.51621C3.55833 8.51621 3.28572 8.63035 3.1733 8.92712C3.01254 9.35857 3.22951 9.70955 3.7264 10.0611C4.026 10.2734 5.10578 10.9514 5.34916 11.1802C5.60098 11.4165 5.56838 11.5991 5.53915 11.8314C5.51498 12.026 4.97143 14.6113 1.56515 16.2829C1.36561 16.3811 1.02611 16.5888 1.62474 16.9244C2.56455 17.4517 3.19016 17.3952 3.67637 17.7131C4.08895 17.983 3.845 18.5651 4.14516 18.7752C4.51389 19.0337 5.60379 18.7569 7.01183 19.2289C8.19223 19.6238 8.90946 20.7395 11.0027 20.7395C13.0959 20.7395 13.8339 19.6187 14.9935 19.2289C16.3988 18.7569 17.4909 19.0337 17.8602 18.7752C18.1598 18.5651 17.9164 17.983 18.329 17.7131C18.8152 17.3952 19.4403 17.4517 20.3806 16.9244C20.9781 16.5928 20.6386 16.3851 20.4391 16.2869Z" fill="#F5F5F5"/>
<path d="M21.9213 16.0904C21.7685 15.6681 21.4773 15.4421 21.1457 15.2549C21.0833 15.2178 21.0259 15.1881 20.977 15.1653C20.8781 15.1133 20.7769 15.0631 20.6763 15.01C19.6426 14.4536 18.8355 13.7516 18.2756 12.9196C18.1166 12.6853 17.9787 12.437 17.8636 12.1776C17.8158 12.039 17.8181 11.9602 17.8524 11.8883C17.8864 11.8329 17.9314 11.7853 17.9845 11.7485C18.1621 11.6292 18.3453 11.5082 18.4695 11.4266C18.691 11.2811 18.8664 11.1658 18.9794 11.0842C19.4037 10.7828 19.7005 10.4627 19.886 10.1049C20.0154 9.85763 20.0909 9.58501 20.1073 9.30553C20.1237 9.02606 20.0806 8.74627 19.981 8.4852C19.7 7.73416 19.0013 7.26789 18.1548 7.26789C17.9762 7.26772 17.7982 7.28685 17.6236 7.32496C17.5769 7.33524 17.5303 7.34608 17.4848 7.35806C17.4926 6.84443 17.4814 6.30226 17.4364 5.76866C17.2768 3.89276 16.6298 2.90944 15.9553 2.1253C15.5234 1.63392 15.0146 1.2182 14.4495 0.894861C13.4259 0.301331 12.2652 0 10.9999 0C9.73462 0 8.57952 0.301331 7.55482 0.894861C6.9883 1.2183 6.4785 1.63485 6.04617 2.12758C5.37166 2.91172 4.72469 3.89676 4.56505 5.77094C4.52009 6.30455 4.50884 6.84957 4.51615 7.36035C4.47062 7.34836 4.42453 7.33752 4.37788 7.32725C4.20331 7.28914 4.02525 7.27 3.8467 7.27018C2.99963 7.27018 2.29982 7.73644 2.0199 8.48748C1.91984 8.74866 1.87634 9.02865 1.89234 9.30842C1.90835 9.58819 1.98348 9.86119 2.11264 10.1088C2.2987 10.4667 2.59548 10.7868 3.01986 11.0882C3.13228 11.1681 3.30821 11.2834 3.52968 11.4306C3.6494 11.5094 3.82422 11.6246 3.99565 11.7399C4.05564 11.7793 4.10662 11.8312 4.14517 11.8923C4.18114 11.9671 4.18227 12.0475 4.12887 12.1959C4.01529 12.4498 3.87967 12.6929 3.7236 12.9224C3.17612 13.7357 2.39257 14.4251 1.39204 14.9769C0.861988 15.2623 0.311137 15.4529 0.0784306 16.0949C-0.0969423 16.5795 0.0177245 17.1308 0.463464 17.5953C0.627054 17.7687 0.816794 17.9145 1.02556 18.0273C1.45994 18.2697 1.92183 18.4573 2.401 18.5861C2.49988 18.612 2.59375 18.6546 2.67867 18.7122C2.84112 18.8566 2.81807 19.074 3.03448 19.3925C3.14311 19.557 3.28114 19.6995 3.44143 19.8125C3.8956 20.131 4.40598 20.1509 4.94671 20.172C5.43517 20.1909 5.98883 20.2126 6.62119 20.4243C6.88312 20.5122 7.15518 20.6823 7.47051 20.8809C8.22765 21.3534 9.26415 22 10.9988 22C12.7334 22 13.7772 21.35 14.5399 20.8757C14.853 20.6805 15.1234 20.5122 15.378 20.4266C16.0104 20.2143 16.564 20.1932 17.0525 20.1743C17.5932 20.1532 18.1036 20.1332 18.5578 19.8148C18.7476 19.6804 18.9058 19.505 19.021 19.3011C19.1767 19.0323 19.1727 18.8446 19.3189 18.7133C19.3985 18.6585 19.4867 18.6176 19.5797 18.5923C20.0654 18.4632 20.5336 18.2738 20.9737 18.0285C21.1955 17.9077 21.3951 17.749 21.5639 17.5594L21.5695 17.5525C21.9877 17.0982 22.0928 16.5629 21.9213 16.0904ZM20.3795 16.9316C19.4391 17.4589 18.8141 17.4024 18.3279 17.7203C17.9148 17.9902 18.1593 18.5724 17.8591 18.7824C17.4904 19.0409 16.4005 18.7641 14.9924 19.2361C13.8312 19.6259 13.0903 20.7467 11.0016 20.7467C8.91284 20.7467 8.18943 19.6282 7.00903 19.2332C5.6038 18.7613 4.51166 19.0381 4.14236 18.7795C3.84277 18.5695 4.08615 17.9874 3.67358 17.7174C3.1868 17.3996 2.56176 17.4561 1.62194 16.9316C1.02331 16.596 1.36281 16.3883 1.56235 16.2901C4.96864 14.6157 5.51218 12.0304 5.53635 11.8386C5.56558 11.6064 5.59818 11.4237 5.34636 11.1875C5.10298 10.9592 4.0232 10.2806 3.7236 10.0683C3.22784 9.71678 3.00974 9.36579 3.1705 8.93434C3.28292 8.63587 3.55722 8.52344 3.84501 8.52344C3.93597 8.52372 4.02663 8.53405 4.11538 8.55426C4.65949 8.6741 5.18785 8.95089 5.49307 9.02566C5.52982 9.03523 5.56755 9.04041 5.60549 9.04107C5.76849 9.04107 5.82583 8.95774 5.81459 8.76827C5.77974 8.1639 5.69542 6.98597 5.78929 5.88508C5.91801 4.37044 6.3986 3.61996 6.96969 2.95624C7.24399 2.63722 8.53287 1.2544 10.9976 1.2544C13.4624 1.2544 14.7547 2.63151 15.029 2.94939C15.6006 3.61312 16.0818 4.36359 16.2094 5.87823C16.3032 6.97912 16.2223 8.15762 16.1841 8.76142C16.1711 8.9606 16.2302 9.03422 16.3932 9.03422C16.4311 9.0336 16.4688 9.02843 16.5056 9.01881C16.8114 8.94405 17.3397 8.66725 17.8838 8.54741C17.9726 8.52721 18.0632 8.51687 18.1542 8.51659C18.4437 8.51659 18.7163 8.63073 18.8287 8.92749C18.9895 9.35895 18.7725 9.70993 18.2762 10.0615C17.9766 10.2738 16.8968 10.9518 16.6534 11.1806C16.401 11.4169 16.4342 11.5995 16.4634 11.8318C16.4876 12.0264 17.0306 14.6117 20.4374 16.2833C20.6387 16.3854 20.9782 16.5932 20.3795 16.9316Z" fill="#F5F5F5"/>
</svg>
