<svg width="22" height="22" viewBox="0 0 22 22" fill="none" xmlns="http://www.w3.org/2000/svg">
<path d="M11 22C17.0751 22 22 17.0751 22 11C22 4.92487 17.0751 0 11 0C4.92487 0 0 4.92487 0 11C0 17.0751 4.92487 22 11 22Z" fill="#F5F5F5"/>
<path fill-rule="evenodd" clip-rule="evenodd" d="M4.97923 10.8839C8.18595 9.48676 10.3243 8.5657 11.3942 8.12069C14.449 6.85008 15.0838 6.62937 15.4975 6.62208C15.5885 6.62047 15.7919 6.64303 15.9237 6.74997C16.035 6.84027 16.0656 6.96225 16.0803 7.04786C16.0949 7.13347 16.1132 7.3285 16.0987 7.48089C15.9331 9.22025 15.2169 13.4412 14.8524 15.3893C14.6982 16.2136 14.3946 16.49 14.1007 16.5171C13.4619 16.5759 12.9768 16.0949 12.3581 15.6894C11.39 15.0547 10.8431 14.6597 9.9033 14.0404C8.81726 13.3247 9.52129 12.9314 10.1402 12.2885C10.3022 12.1203 13.1167 9.56024 13.1712 9.328C13.178 9.29896 13.1843 9.19069 13.12 9.13353C13.0557 9.07636 12.9608 9.09591 12.8923 9.11145C12.7952 9.13349 11.2486 10.1558 8.25241 12.1782C7.81341 12.4797 7.41577 12.6266 7.0595 12.6189C6.66675 12.6104 5.91124 12.3968 5.3496 12.2142C4.66072 11.9903 4.11322 11.8719 4.16089 11.4916C4.18573 11.2935 4.4585 11.091 4.97923 10.8839Z" fill="#034845"/>
</svg>
