<svg width="28" height="32" viewBox="0 0 28 32" fill="none" xmlns="http://www.w3.org/2000/svg">
<g clip-path="url(#clip0_17_143)">
<path d="M22.7937 0H21.8112C21.3049 0.0849303 20.8208 0.272915 20.388 0.552644C19.9551 0.832373 19.5824 1.19806 19.2922 1.62777C19.002 2.05748 18.8004 2.54232 18.6994 3.05316C18.5985 3.564 18.6002 4.09032 18.7046 4.60046C18.8818 5.43665 19.3358 6.18591 19.991 6.72337C20.6463 7.26082 21.4631 7.55399 22.3054 7.55399C23.1477 7.55399 23.9645 7.26082 24.6198 6.72337C25.275 6.18591 25.729 5.43665 25.9061 4.60046C26.0114 4.08983 26.0136 3.56281 25.9126 3.0513C25.8116 2.53979 25.6096 2.05441 25.3187 1.62442C25.0278 1.19443 24.654 0.828778 24.22 0.549581C23.7861 0.270384 23.3009 0.0834252 22.7937 0ZM22.3054 5.67588C21.9374 5.67706 21.5774 5.56732 21.2709 5.36059C20.9644 5.15386 20.7251 4.85942 20.5835 4.51454C20.4419 4.16966 20.4042 3.78988 20.4753 3.42326C20.5464 3.05663 20.723 2.71964 20.9828 2.45501C21.2425 2.19037 21.5738 2.00998 21.9346 1.93664C22.2954 1.86331 22.6696 1.90037 23.0096 2.04309C23.3497 2.18581 23.6404 2.42778 23.845 2.73839C24.0495 3.04899 24.1587 3.41422 24.1587 3.78788C24.1587 4.28757 23.9637 4.7669 23.6163 5.12079C23.2689 5.47468 22.7975 5.6743 22.3054 5.67588Z" fill="#A29C7B"/>
<path d="M9.18492 2.61088C8.95824 1.94661 8.5603 1.35624 8.03255 0.901239C7.5048 0.446236 6.86655 0.143238 6.1843 0.0238647H5.20173C4.69971 0.107968 4.21936 0.293254 3.78896 0.568814C3.35856 0.844374 2.98683 1.20465 2.69568 1.62837C2.40453 2.05209 2.19984 2.5307 2.09368 3.036C1.98752 3.5413 1.98203 4.06308 2.07754 4.57057C2.17999 5.07075 2.38211 5.54437 2.67146 5.9623C2.96081 6.38023 3.33129 6.73362 3.76012 7.00078C4.18894 7.26795 4.66705 7.44323 5.16505 7.51583C5.66304 7.58843 6.1704 7.55682 6.65592 7.42295C7.14144 7.28908 7.59487 7.05578 7.98832 6.73739C8.38177 6.41899 8.70692 6.02224 8.9438 5.57153C9.18067 5.12081 9.32426 4.62564 9.36573 4.11649C9.4072 3.60735 9.34566 3.09499 9.18492 2.61088ZM5.69007 5.69974C5.32235 5.69974 4.96289 5.58903 4.65714 5.38158C4.3514 5.17412 4.1131 4.87927 3.97238 4.53429C3.83166 4.1893 3.79484 3.80967 3.86658 3.44344C3.93832 3.07721 4.11539 2.7408 4.37541 2.47676C4.63542 2.21272 4.9667 2.03292 5.32735 1.96007C5.688 1.88722 6.06184 1.9246 6.40156 2.0675C6.74129 2.2104 7.03165 2.45239 7.23595 2.76287C7.44024 3.07335 7.54928 3.43838 7.54928 3.81178C7.54309 4.30835 7.34449 4.78243 6.99648 5.13135C6.64848 5.48026 6.17911 5.6759 5.69007 5.67586V5.69974Z" fill="#A29C7B"/>
<path d="M26.7703 11.2861C25.9272 9.84272 24.6216 8.73708 23.0719 8.15416C21.5222 7.57123 19.8223 7.54635 18.2567 8.08367C16.4133 8.82762 14.8993 10.227 13.997 12.021C12.5673 9.41602 10.3021 7.62963 7.28973 7.70132C6.13088 7.72245 4.99428 8.02798 3.97692 8.59186C2.95957 9.15574 2.09168 9.96123 1.44733 10.9395C0.582379 12.2531 0.0845358 13.7803 0.00682786 15.3585C-0.0708801 16.9368 0.274458 18.5068 1.00606 19.9015C1.68757 21.1936 2.53647 22.3872 3.53011 23.4504C4.69373 24.7069 5.93367 25.8882 7.24266 26.9873L12.3261 31.3129C12.8451 31.7609 13.5041 32.0068 14.1853 32.0068C14.8665 32.0068 15.5254 31.7609 16.0445 31.3129L20.6514 27.2383C21.9806 26.067 23.2474 24.8245 24.4463 23.5161C25.2989 22.6022 26.0561 21.6011 26.7056 20.5288C27.5423 19.1395 27.9905 17.545 28.0019 15.9166C28.0133 14.2881 27.5875 12.6873 26.7703 11.2861ZM13.997 15.062C14.3629 15.0609 14.7209 15.17 15.0256 15.3757C15.3303 15.5814 15.568 15.8743 15.7086 16.2174C15.8491 16.5604 15.8862 16.9381 15.8151 17.3026C15.744 17.6671 15.568 18.0019 15.3092 18.2646C15.0505 18.5273 14.7208 18.7061 14.3619 18.7783C14.003 18.8505 13.631 18.8128 13.2932 18.6701C12.9554 18.5274 12.6669 18.286 12.4644 17.9766C12.2618 17.6672 12.1543 17.3036 12.1555 16.9321C12.157 16.4366 12.3515 15.9618 12.6965 15.6115C13.0416 15.2611 13.5091 15.0636 13.997 15.062ZM6.23657 20.8156C7.18383 21.8372 8.17227 22.7454 9.17836 23.6655C9.36659 23.8184 9.48939 24.0393 9.52118 24.2819C9.55297 24.5246 9.49128 24.7703 9.34898 24.9679C9.19951 25.1653 8.98051 25.2961 8.73802 25.3329C8.49553 25.3696 8.24844 25.3095 8.04871 25.1651C6.86031 24.1828 5.74343 23.1146 4.70683 21.9687C3.93947 21.1442 3.27186 20.2296 2.71818 19.2443C2.11704 18.1882 1.80053 16.9899 1.80053 15.77C1.80053 14.5502 2.11704 13.3519 2.71818 12.2958C3.31905 11.2394 4.25098 10.4177 5.36533 9.96178C6.47969 9.5059 7.71229 9.44207 8.86653 9.78047C10.6316 10.2764 11.9201 11.8417 12.6379 13.4549C11.8671 13.7649 11.2218 14.3299 10.8065 15.0585C10.3912 15.7871 10.23 16.6367 10.3492 17.4698C10.4671 18.2818 10.8421 19.0329 11.4173 19.6095C11.9926 20.1861 12.737 20.557 13.5381 20.6662C12.2643 20.7706 11.0279 21.1538 9.91381 21.7894C8.4135 20.4093 5.59526 17.9896 5.51877 15.8148H3.70662C3.6419 17.6789 5.02455 19.5071 6.23657 20.8156ZM14.9619 29.7775C14.7554 29.9668 14.4871 30.0716 14.2088 30.0716C13.9306 30.0716 13.6622 29.9668 13.4557 29.7775L9.99618 26.7902C10.6063 26.4444 11.066 25.8783 11.284 25.2042C11.502 24.5301 11.4624 23.7974 11.1729 23.1516C12.0773 22.7016 13.0727 22.4721 14.0798 22.4815C15.0869 22.4908 16.078 22.7387 16.9741 23.2054C16.6625 23.8579 16.6109 24.6073 16.8301 25.2975C17.0493 25.9876 17.5225 26.5651 18.1508 26.9097L14.9619 29.7775ZM25.1935 19.3936C24.6934 20.274 24.1017 21.0972 23.4284 21.8492C22.3803 23.0423 21.2539 24.162 20.0571 25.2009C19.87 25.3511 19.634 25.424 19.3962 25.4052C19.1585 25.3864 18.9364 25.2772 18.7745 25.0994C18.6107 24.9096 18.5275 24.6618 18.5429 24.41C18.5584 24.1582 18.6712 23.9228 18.8569 23.7551C19.9041 22.7812 20.9161 21.8313 21.8752 20.7678C23.0931 19.4175 24.3463 17.7147 24.3168 15.7849H22.4753C22.4106 17.195 21.5927 18.1748 20.7102 19.2502C19.8983 20.1464 19.0687 20.9829 18.1685 21.8193C17.0275 21.1407 15.7504 20.7323 14.4324 20.6244C15.2476 20.5204 16.0056 20.144 16.5869 19.5543C17.1682 18.9646 17.5397 18.1952 17.6428 17.3675C17.746 16.5397 17.5749 15.7007 17.1566 14.9825C16.7384 14.2644 16.0966 13.708 15.3326 13.4011C16.0916 11.7461 17.4036 10.1927 19.151 9.72074C20.3233 9.40286 21.5669 9.49593 22.6805 9.98494C23.7942 10.4739 24.7128 11.3302 25.2876 12.4153C25.8706 13.4918 26.1683 14.7036 26.1518 15.932C26.1353 17.1605 25.8051 18.3635 25.1935 19.4235V19.3936Z" fill="#A29C7B"/>
</g>
<defs>
<clipPath id="clip0_17_143">
<rect width="28" height="32" fill="white"/>
</clipPath>
</defs>
</svg>
