<svg width="1197" height="479" viewBox="0 0 1197 479" fill="none" xmlns="http://www.w3.org/2000/svg">
<path d="M83.0829 83.6374V77.9776C83.1062 57.9669 91.0115 38.7827 105.064 24.6331C119.117 10.4834 138.171 2.52354 158.045 2.5H1038.96C1058.83 2.52354 1077.88 10.4834 1091.94 24.6331C1105.99 38.7827 1113.89 57.9669 1113.92 77.9776V83.6374H1119.54C1139.41 83.6609 1158.47 91.6208 1172.52 105.77C1186.57 119.92 1194.48 139.104 1194.5 159.115V319.885C1194.48 339.896 1186.57 359.08 1172.52 373.23C1158.47 387.38 1139.41 395.339 1119.54 395.363H1113.92V401.023C1113.89 421.033 1105.99 440.218 1091.94 454.368C1077.88 468.517 1058.83 476.476 1038.96 476.5H158.045C138.171 476.476 119.117 468.517 105.064 454.368C91.0115 440.218 83.1062 421.033 83.0829 401.023V395.363H77.4617C57.5878 395.339 38.5346 387.38 24.4816 373.23C10.4286 359.08 2.52338 339.896 2.5 319.885V159.115C2.52338 139.104 10.4286 119.92 24.4816 105.77C38.5346 91.6208 57.5878 83.6609 77.4617 83.6374H83.0829Z" fill="#EEECE6" fill-opacity="0.3" stroke="#A29C7B" stroke-width="5" stroke-miterlimit="10"/>
</svg>
