<svg width="200" height="201" viewBox="0 0 200 201" fill="none" xmlns="http://www.w3.org/2000/svg">
<mask id="path-1-inside-1_23_1064" fill="white">
<path d="M-100 150C-100 67.1573 -32.8427 0 50 0C132.843 0 200 67.1573 200 150C200 232.843 132.843 300 50 300C-32.8427 300 -100 232.843 -100 150Z"/>
</mask>
<path d="M-100 150M200 150M200 150M-100 150M50 0M200 150M50 300M-100 150M50 300V299C-32.2904 299 -99 232.29 -99 150H-100H-101C-101 233.395 -33.395 301 50 301V300ZM200 150H199C199 232.29 132.29 299 50 299V300V301C133.395 301 201 233.395 201 150H200ZM50 0V1C132.29 1 199 67.7096 199 150H200H201C201 66.605 133.395 -1 50 -1V0ZM50 0V-1C-33.395 -1 -101 66.605 -101 150H-100H-99C-99 67.7096 -32.2904 1 50 1V0Z" fill="#A29C7B" fill-opacity="0.25" mask="url(#path-1-inside-1_23_1064)"/>
</svg>
