<svg width="400" height="400" viewBox="0 0 400 400" fill="none" xmlns="http://www.w3.org/2000/svg">
<mask id="path-1-inside-1_23_1063" fill="white">
<path d="M0 100C0 -65.6854 134.315 -200 300 -200C465.685 -200 600 -65.6854 600 100C600 265.685 465.685 400 300 400C134.315 400 0 265.685 0 100Z"/>
</mask>
<path d="M0 100M600 100M600 100M0 100M300 -200M600 100M300 400M0 100M300 400V399C134.867 399 1 265.133 1 100H0H-1C-1 266.238 133.762 401 300 401V400ZM600 100H599C599 265.133 465.133 399 300 399V400V401C466.238 401 601 266.238 601 100H600ZM300 -200V-199C465.133 -199 599 -65.1331 599 100H600H601C601 -66.2377 466.238 -201 300 -201V-200ZM300 -200V-201C133.762 -201 -1 -66.2377 -1 100H0H1C1 -65.1331 134.867 -199 300 -199V-200Z" fill="#A29C7B" fill-opacity="0.25" mask="url(#path-1-inside-1_23_1063)"/>
</svg>
