<svg width="132" height="128" viewBox="0 0 132 128" fill="none" xmlns="http://www.w3.org/2000/svg">
<path d="M53.1832 59.9349L57.0741 61.5791C57.5397 60.6491 58.0219 59.7522 58.5207 58.8886C59.0196 58.025 59.5683 57.1614 60.1669 56.2977L57.3734 55.7497L53.1832 59.9349ZM60.2667 64.0703L65.9534 69.7005C67.3501 69.169 68.8466 68.3552 70.4429 67.2591C72.0391 66.1629 73.5356 64.9173 74.9324 63.5222C77.2603 61.1971 79.081 58.6146 80.3946 55.7746C81.7082 52.9346 82.2819 50.3188 82.1156 47.9273C79.7212 47.7612 77.094 48.3342 74.234 49.6462C71.374 50.9582 68.7801 52.7768 66.4522 55.102C65.0555 56.497 63.8084 57.9918 62.7109 59.5861C61.6135 61.1805 60.7987 62.6752 60.2667 64.0703ZM69.1459 60.8317C68.381 60.0678 67.9986 59.1294 67.9986 58.0167C67.9986 56.9039 68.381 55.9656 69.1459 55.2016C69.9108 54.4376 70.8586 54.0556 71.9893 54.0556C73.1199 54.0556 74.0677 54.4376 74.8326 55.2016C75.5975 55.9656 75.9799 56.9039 75.9799 58.0167C75.9799 59.1294 75.5975 60.0678 74.8326 60.8317C74.0677 61.5957 73.1199 61.9777 71.9893 61.9777C70.8586 61.9777 69.9108 61.5957 69.1459 60.8317ZM70.0937 76.8253L74.2839 72.6401L73.7352 69.8499C72.8705 70.4478 72.0059 70.9876 71.1412 71.4692C70.2766 71.9508 69.3787 72.4242 68.4475 72.8892L70.0937 76.8253ZM85.7072 44.2901C86.339 48.3093 85.9483 52.2205 84.5349 56.0237C83.1216 59.827 80.6856 63.4558 77.227 66.9103L78.2247 71.8429C78.3577 72.5072 78.3244 73.1549 78.1249 73.786C77.9254 74.4171 77.5928 74.9652 77.1272 75.4302L68.7468 83.8007L64.5566 73.9853L56.0266 65.4654L46.1995 61.2802L54.5301 52.9097C54.9956 52.4447 55.5527 52.1125 56.2012 51.9132C56.8496 51.7139 57.5064 51.6807 58.1716 51.8136L63.11 52.81C66.5686 49.3556 70.1935 46.9142 73.9846 45.4859C77.7757 44.0576 81.6833 43.659 85.7072 44.2901ZM49.7413 71.7931C50.9052 70.6305 52.3269 70.0409 54.0063 70.0243C55.6857 70.0077 57.1074 70.5807 58.2713 71.7432C59.4353 72.9058 60.0089 74.3258 59.9923 76.0032C59.9757 77.6806 59.3854 79.1006 58.2214 80.2632C57.39 81.0936 56.0016 81.8077 54.0562 82.4056C52.1107 83.0035 49.4253 83.535 46 84C46.4656 80.5787 46.9977 77.8965 47.5963 75.9534C48.1949 74.0102 48.9099 72.6235 49.7413 71.7931ZM52.5846 74.5832C52.2521 74.9154 51.9195 75.5216 51.5869 76.4018C51.2544 77.282 51.0216 78.1706 50.8886 79.0674C51.7865 78.9345 52.6761 78.7103 53.5573 78.3948C54.4386 78.0792 55.0455 77.7554 55.3781 77.4232C55.7771 77.0246 55.9933 76.543 56.0266 75.9783C56.0598 75.4136 55.8769 74.932 55.4778 74.5334C55.0788 74.1348 54.5966 73.9438 54.0312 73.9604C53.4659 73.977 52.9837 74.1846 52.5846 74.5832Z" fill="#A29C7B"/>
<path d="M64.5773 128L45.7921 109.338H18.7898V82.3293L0 63.6671L18.7805 45.0187V18.6622H45.7828L64.568 0L83.3671 18.6622H109.21V45.0187L128 63.6809L109.21 82.3433V109.352H83.3671L64.5773 128ZM20.5171 107.613H46.4346L64.5912 125.646L82.7479 107.613H107.497V81.6912L125.654 63.6578L107.497 45.6244V20.3639H82.7247L64.568 2.33049L46.4113 20.3639H20.5171V45.629L2.36037 63.6623L20.5171 81.6957V107.613Z" fill="#F5F5F5"/>
<path d="M64.4594 115.844L49.1473 100.635H26.484V78.8012L11.1719 63.5975L26.484 48.3895V27.2302H49.1473L64.4594 12.022L79.7716 27.2302H101.262V48.3848L116.574 63.5975L101.262 78.8057V100.635H79.7716L64.4594 115.844ZM28.2205 98.9106H49.813L64.4827 113.481L79.1431 98.9106H99.5391V78.1629L114.204 63.5975L99.5391 49.0275V28.9549H79.1431L64.4734 14.385L49.813 28.9549H28.2205V49.0275L13.5509 63.5975L28.2205 78.1629V98.9106Z" fill="#F5F5F5"/>
</svg>
