<svg width="128" height="128" viewBox="0 0 128 128" fill="none" xmlns="http://www.w3.org/2000/svg">
<path d="M60.6 78.2857C60.8 78.9206 61.075 79.5794 61.425 80.2619C61.775 80.9444 62.1333 81.5556 62.5 82.0952H48C46.9 82.0952 45.9583 81.7222 45.175 80.9762C44.3917 80.2302 44 79.3333 44 78.2857V47.8095C44 46.7619 44.3917 45.8651 45.175 45.119C45.9583 44.373 46.9 44 48 44H72C73.1 44 74.0417 44.373 74.825 45.119C75.6083 45.8651 76 46.7619 76 47.8095V61.3333C75.4 61.2698 74.7333 61.2381 74 61.2381C73.2667 61.2381 72.6 61.2698 72 61.3333V47.8095H62V61.1429L57 58.2857L52 61.1429V47.8095H48V78.2857H60.6ZM74 84C71.2333 84 68.875 83.0714 66.925 81.2143C64.975 79.3571 64 77.1111 64 74.4762C64 71.8413 64.975 69.5952 66.925 67.7381C68.875 65.881 71.2333 64.9524 74 64.9524C76.7667 64.9524 79.125 65.881 81.075 67.7381C83.025 69.5952 84 71.8413 84 74.4762C84 77.1111 83.025 79.3571 81.075 81.2143C79.125 83.0714 76.7667 84 74 84ZM71.5 79.2381L79.5 74.4762L71.5 69.7143V79.2381ZM60.6 47.8095H48H52H62H72C68.3667 47.8095 65.4583 47.8095 63.275 47.8095C61.0917 47.8095 60 47.8095 60 47.8095C60 47.8095 60.0583 47.8095 60.175 47.8095C60.2917 47.8095 60.4333 47.8095 60.6 47.8095Z" fill="#A29C7B"/>
<path d="M64.5773 128L45.7921 109.338H18.7898V82.3293L0 63.6671L18.7805 45.0187V18.6622H45.7828L64.568 0L83.3671 18.6622H109.21V45.0187L128 63.6809L109.21 82.3433V109.352H83.3671L64.5773 128ZM20.5171 107.613H46.4346L64.5912 125.646L82.7479 107.613H107.497V81.6912L125.654 63.6578L107.497 45.6244V20.3639H82.7247L64.568 2.33049L46.4113 20.3639H20.5171V45.629L2.36037 63.6623L20.5171 81.6957V107.613Z" fill="#F5F5F5"/>
<path d="M64.4594 115.844L49.1473 100.635H26.484V78.8012L11.1719 63.5975L26.484 48.3895V27.2302H49.1473L64.4594 12.022L79.7716 27.2302H101.262V48.3848L116.574 63.5975L101.262 78.8057V100.635H79.7716L64.4594 115.844ZM28.2205 98.9106H49.813L64.4827 113.481L79.1431 98.9106H99.5391V78.1629L114.204 63.5975L99.5391 49.0275V28.9549H79.1431L64.4734 14.385L49.813 28.9549H28.2205V49.0275L13.5509 63.5975L28.2205 78.1629V98.9106Z" fill="#F5F5F5"/>
</svg>
