<svg width="45" height="40" viewBox="0 0 45 40" fill="none" xmlns="http://www.w3.org/2000/svg">
<path d="M22.5 40C20.8636 38.7009 19.0909 37.6923 17.1818 36.9744C15.2727 36.2564 13.2955 35.8974 11.25 35.8974C9.81818 35.8974 8.41193 36.0855 7.03125 36.4615C5.65057 36.8376 4.32955 37.3675 3.06818 38.0513C2.35227 38.4273 1.66193 38.4103 0.997159 38C0.332386 37.5897 0 36.9915 0 36.2051V11.4872C0 11.1111 0.09375 10.7521 0.28125 10.4103C0.46875 10.0684 0.75 9.81197 1.125 9.64103C2.69318 8.82051 4.32955 8.20513 6.03409 7.79487C7.73864 7.38462 9.47727 7.17949 11.25 7.17949C13.2273 7.17949 15.1619 7.4359 17.054 7.94872C18.946 8.46154 20.7614 9.23077 22.5 10.2564V35.0769C24.2386 33.9829 26.0625 33.1624 27.9716 32.6154C29.8807 32.0684 31.8068 31.7949 33.75 31.7949C34.9773 31.7949 36.179 31.8974 37.3551 32.1026C38.5312 32.3077 39.7159 32.6154 40.9091 33.0256V8.41026C41.4205 8.5812 41.9233 8.76068 42.4176 8.94872C42.9119 9.13675 43.3977 9.36752 43.875 9.64103C44.25 9.81197 44.5312 10.0684 44.7188 10.4103C44.9062 10.7521 45 11.1111 45 11.4872V36.2051C45 36.9915 44.6676 37.5897 44.0028 38C43.3381 38.4103 42.6477 38.4273 41.9318 38.0513C40.6705 37.3675 39.3494 36.8376 37.9688 36.4615C36.5881 36.0855 35.1818 35.8974 33.75 35.8974C31.7045 35.8974 29.7273 36.2564 27.8182 36.9744C25.9091 37.6923 24.1364 38.7009 22.5 40ZM26.5909 29.7436V10.2564L36.8182 0V20.5128L26.5909 29.7436ZM18.4091 33.0769V12.7692C17.2841 12.2906 16.1165 11.9231 14.9062 11.6667C13.696 11.4103 12.4773 11.2821 11.25 11.2821C9.98864 11.2821 8.76136 11.4017 7.56818 11.641C6.375 11.8803 5.21591 12.2393 4.09091 12.7179V33.0769C5.28409 32.6325 6.46875 32.3077 7.64489 32.1026C8.82102 31.8974 10.0227 31.7949 11.25 31.7949C12.4773 31.7949 13.679 31.8974 14.8551 32.1026C16.0312 32.3077 17.2159 32.6325 18.4091 33.0769Z" fill="#A29C7B"/>
</svg>
