<svg width="33" height="32" viewBox="0 0 33 32" fill="none" xmlns="http://www.w3.org/2000/svg">
<path d="M23.5714 17.1707L17.05 10.8488C16.2381 10.0683 15.5506 9.20325 14.9875 8.25366C14.4244 7.30406 14.1429 6.26992 14.1429 5.15122C14.1429 3.72032 14.647 2.50406 15.6554 1.50244C16.6637 0.500813 17.8881 0 19.3286 0C20.1667 0 20.9524 0.17561 21.6857 0.526829C22.419 0.878049 23.0476 1.35285 23.5714 1.95122C24.0952 1.35285 24.7238 0.878049 25.4571 0.526829C26.1905 0.17561 26.9762 0 27.8143 0C29.2548 0 30.4792 0.500813 31.4875 1.50244C32.4958 2.50406 33 3.72032 33 5.15122C33 6.26992 32.725 7.30406 32.175 8.25366C31.625 9.20325 30.944 10.0683 30.1321 10.8488L23.5714 17.1707ZM23.5714 12.8L27.8536 8.62439C28.3512 8.13008 28.8095 7.60325 29.2286 7.0439C29.6476 6.48455 29.8571 5.85366 29.8571 5.15122C29.8571 4.57886 29.6607 4.09756 29.2679 3.70732C28.875 3.31707 28.3905 3.12195 27.8143 3.12195C27.4476 3.12195 27.1006 3.1935 26.7732 3.33659C26.4458 3.47967 26.1643 3.69431 25.9286 3.98049L23.5714 6.79024L21.2143 3.98049C20.9786 3.69431 20.697 3.47967 20.3696 3.33659C20.0423 3.1935 19.6952 3.12195 19.3286 3.12195C18.7524 3.12195 18.2679 3.31707 17.875 3.70732C17.4821 4.09756 17.2857 4.57886 17.2857 5.15122C17.2857 5.85366 17.4952 6.48455 17.9143 7.0439C18.3333 7.60325 18.7917 8.13008 19.2893 8.62439L23.5714 12.8ZM9.42857 25.7561L20.35 28.7219L29.7 25.8341C29.569 25.6 29.3792 25.3984 29.1304 25.2293C28.8815 25.0602 28.6 24.9756 28.2857 24.9756H20.35C19.6429 24.9756 19.0798 24.9496 18.6607 24.8976C18.2417 24.8455 17.8095 24.7415 17.3643 24.5854L13.7107 23.3756L14.575 20.3317L17.7571 21.3854C18.2024 21.5154 18.7262 21.6195 19.3286 21.6976C19.931 21.7756 20.8214 21.8276 22 21.8537C22 21.5675 21.9149 21.2943 21.7446 21.0341C21.5744 20.774 21.3714 20.6049 21.1357 20.5268L11.9429 17.1707H9.42857V25.7561ZM0 31.2195V14.0488H11.9429C12.1262 14.0488 12.3095 14.0683 12.4929 14.1073C12.6762 14.1463 12.8464 14.1919 13.0036 14.2439L22.2357 17.639C23.1 17.9512 23.8006 18.4976 24.3375 19.278C24.8744 20.0585 25.1429 20.9171 25.1429 21.8537H28.2857C29.5952 21.8537 30.7083 22.2829 31.625 23.1415C32.5417 24 33 25.1317 33 26.5366V28.0976L20.4286 32L9.42857 28.9561V31.2195H0ZM3.14286 28.0976H6.28571V17.1707H3.14286V28.0976Z" fill="#A29C7B"/>
</svg>
