<svg width="36" height="32" viewBox="0 0 36 32" fill="none" xmlns="http://www.w3.org/2000/svg">
<path d="M18 32C16.6909 30.9607 15.2727 30.1538 13.7455 29.5795C12.2182 29.0051 10.6364 28.7179 9 28.7179C7.85455 28.7179 6.72955 28.8684 5.625 29.1692C4.52045 29.4701 3.46364 29.894 2.45455 30.441C1.88182 30.7419 1.32955 30.7282 0.797727 30.4C0.265909 30.0718 0 29.5932 0 28.9641V9.18974C0 8.88889 0.075 8.60171 0.225 8.32821C0.375 8.0547 0.6 7.84957 0.9 7.71282C2.15455 7.05641 3.46364 6.5641 4.82727 6.2359C6.19091 5.90769 7.58182 5.74359 9 5.74359C10.5818 5.74359 12.1295 5.94872 13.6432 6.35897C15.1568 6.76923 16.6091 7.38462 18 8.20513V28.0615C19.3909 27.1863 20.85 26.5299 22.3773 26.0923C23.9045 25.6547 25.4455 25.4359 27 25.4359C27.9818 25.4359 28.9432 25.518 29.8841 25.6821C30.825 25.8462 31.7727 26.0923 32.7273 26.4205V6.72821C33.1364 6.86496 33.5386 7.00855 33.9341 7.15897C34.3295 7.3094 34.7182 7.49402 35.1 7.71282C35.4 7.84957 35.625 8.0547 35.775 8.32821C35.925 8.60171 36 8.88889 36 9.18974V28.9641C36 29.5932 35.7341 30.0718 35.2023 30.4C34.6705 30.7282 34.1182 30.7419 33.5455 30.441C32.5364 29.894 31.4795 29.4701 30.375 29.1692C29.2705 28.8684 28.1455 28.7179 27 28.7179C25.3636 28.7179 23.7818 29.0051 22.2545 29.5795C20.7273 30.1538 19.3091 30.9607 18 32ZM21.2727 23.7949V8.20513L29.4545 0V16.4103L21.2727 23.7949ZM14.7273 26.4615V10.2154C13.8273 9.83248 12.8932 9.53846 11.925 9.33333C10.9568 9.12821 9.98182 9.02564 9 9.02564C7.99091 9.02564 7.00909 9.12137 6.05455 9.31282C5.1 9.50427 4.17273 9.79145 3.27273 10.1744V26.4615C4.22727 26.106 5.175 25.8462 6.11591 25.6821C7.05682 25.518 8.01818 25.4359 9 25.4359C9.98182 25.4359 10.9432 25.518 11.8841 25.6821C12.825 25.8462 13.7727 26.106 14.7273 26.4615Z" fill="#A29C7B"/>
</svg>
