<svg width="128" height="128" viewBox="0 0 128 128" fill="none" xmlns="http://www.w3.org/2000/svg">
<path d="M44 78.5V71.25C44 70.2229 44.3561 69.362 45.0682 68.6672C45.7803 67.9724 46.6364 67.625 47.6364 67.625H53.5909C54.197 67.625 54.7727 67.776 55.3182 68.0781C55.8636 68.3802 56.303 68.788 56.6364 69.3016C57.5152 70.4797 58.5985 71.401 59.8864 72.0656C61.1742 72.7302 62.5455 73.0625 64 73.0625C65.4848 73.0625 66.8712 72.7302 68.1591 72.0656C69.447 71.401 70.5152 70.4797 71.3636 69.3016C71.7576 68.788 72.2197 68.3802 72.75 68.0781C73.2803 67.776 73.8333 67.625 74.4091 67.625H80.3636C81.3939 67.625 82.2576 67.9724 82.9545 68.6672C83.6515 69.362 84 70.2229 84 71.25V78.5H71.2727V74.3766C70.2121 75.1318 69.0682 75.7057 67.8409 76.0984C66.6136 76.4911 65.3333 76.6875 64 76.6875C62.697 76.6875 61.4242 76.4836 60.1818 76.0758C58.9394 75.668 57.7879 75.0865 56.7273 74.3313V78.5H44ZM64 71.25C62.8485 71.25 61.7576 70.9857 60.7273 70.457C59.697 69.9284 58.8333 69.1958 58.1364 68.2594C57.6212 67.5042 56.9773 66.9076 56.2045 66.4695C55.4318 66.0315 54.5909 65.8125 53.6818 65.8125C54.3485 64.6948 55.7576 63.8112 57.9091 63.1617C60.0606 62.5122 62.0909 62.1875 64 62.1875C65.9091 62.1875 67.9394 62.5122 70.0909 63.1617C72.2424 63.8112 73.6515 64.6948 74.3182 65.8125C73.4394 65.8125 72.6061 66.0315 71.8182 66.4695C71.0303 66.9076 70.3788 67.5042 69.8636 68.2594C69.197 69.226 68.3485 69.9661 67.3182 70.4797C66.2879 70.9932 65.1818 71.25 64 71.25ZM49.4545 65.8125C47.9394 65.8125 46.6515 65.2839 45.5909 64.2266C44.5303 63.1693 44 61.8854 44 60.375C44 58.8344 44.5303 57.543 45.5909 56.5008C46.6515 55.4586 47.9394 54.9375 49.4545 54.9375C51 54.9375 52.2955 55.4586 53.3409 56.5008C54.3864 57.543 54.9091 58.8344 54.9091 60.375C54.9091 61.8854 54.3864 63.1693 53.3409 64.2266C52.2955 65.2839 51 65.8125 49.4545 65.8125ZM78.5455 65.8125C77.0303 65.8125 75.7424 65.2839 74.6818 64.2266C73.6212 63.1693 73.0909 61.8854 73.0909 60.375C73.0909 58.8344 73.6212 57.543 74.6818 56.5008C75.7424 55.4586 77.0303 54.9375 78.5455 54.9375C80.0909 54.9375 81.3864 55.4586 82.4318 56.5008C83.4773 57.543 84 58.8344 84 60.375C84 61.8854 83.4773 63.1693 82.4318 64.2266C81.3864 65.2839 80.0909 65.8125 78.5455 65.8125ZM64 60.375C62.4848 60.375 61.197 59.8464 60.1364 58.7891C59.0758 57.7318 58.5455 56.4479 58.5455 54.9375C58.5455 53.3969 59.0758 52.1055 60.1364 51.0633C61.197 50.0211 62.4848 49.5 64 49.5C65.5455 49.5 66.8409 50.0211 67.8864 51.0633C68.9318 52.1055 69.4545 53.3969 69.4545 54.9375C69.4545 56.4479 68.9318 57.7318 67.8864 58.7891C66.8409 59.8464 65.5455 60.375 64 60.375Z" fill="#A29C7B"/>
<path d="M64.5773 128L45.7921 109.338H18.7898V82.3293L0 63.6671L18.7805 45.0187V18.6622H45.7828L64.568 0L83.3671 18.6622H109.21V45.0187L128 63.6809L109.21 82.3433V109.352H83.3671L64.5773 128ZM20.5171 107.613H46.4346L64.5912 125.646L82.7479 107.613H107.497V81.6912L125.654 63.6578L107.497 45.6244V20.3639H82.7247L64.568 2.33049L46.4113 20.3639H20.5171V45.629L2.36037 63.6623L20.5171 81.6957V107.613Z" fill="#F5F5F5"/>
<path d="M64.4594 115.844L49.1473 100.635H26.484V78.8012L11.1719 63.5975L26.484 48.3895V27.2302H49.1473L64.4594 12.022L79.7716 27.2302H101.262V48.3848L116.574 63.5975L101.262 78.8057V100.635H79.7716L64.4594 115.844ZM28.2205 98.9106H49.813L64.4827 113.481L79.1431 98.9106H99.5391V78.1629L114.204 63.5975L99.5391 49.0275V28.9549H79.1431L64.4734 14.385L49.813 28.9549H28.2205V49.0275L13.5509 63.5975L28.2205 78.1629V98.9106Z" fill="#F5F5F5"/>
</svg>
