<svg width="132" height="128" viewBox="0 0 132 128" fill="none" xmlns="http://www.w3.org/2000/svg">
<path d="M66 71.6C63.7273 71.6 61.7955 70.8125 60.2045 69.2375C58.6136 67.6625 57.8182 65.75 57.8182 63.5C57.8182 61.25 58.6136 59.3375 60.2045 57.7625C61.7955 56.1875 63.7273 55.4 66 55.4C68.2727 55.4 70.2045 56.1875 71.7955 57.7625C73.3864 59.3375 74.1818 61.25 74.1818 63.5C74.1818 65.75 73.3864 67.6625 71.7955 69.2375C70.2045 70.8125 68.2727 71.6 66 71.6ZM66 68.36C67.3636 68.36 68.5227 67.8875 69.4773 66.9425C70.4318 65.9975 70.9091 64.85 70.9091 63.5C70.9091 62.15 70.4318 61.0025 69.4773 60.0575C68.5227 59.1125 67.3636 58.64 66 58.64C64.6364 58.64 63.4773 59.1125 62.5227 60.0575C61.5682 61.0025 61.0909 62.15 61.0909 63.5C61.0909 64.85 61.5682 65.9975 62.5227 66.9425C63.4773 67.8875 64.6364 68.36 66 68.36ZM66 77C70.4242 77 74.4545 75.7775 78.0909 73.3325C81.7273 70.8875 84.3636 67.61 86 63.5C84.3636 59.39 81.7273 56.1125 78.0909 53.6675C74.4545 51.2225 70.4242 50 66 50C61.5758 50 57.5455 51.2225 53.9091 53.6675C50.2727 56.1125 47.6364 59.39 46 63.5C47.6364 67.61 50.2727 70.8875 53.9091 73.3325C57.5455 75.7775 61.5758 77 66 77ZM66 73.4C62.5758 73.4 59.4318 72.5075 56.5682 70.7225C53.7045 68.9375 51.5152 66.53 50 63.5C51.5152 60.47 53.7045 58.0625 56.5682 56.2775C59.4318 54.4925 62.5758 53.6 66 53.6C69.4242 53.6 72.5682 54.4925 75.4318 56.2775C78.2955 58.0625 80.4848 60.47 82 63.5C80.4848 66.53 78.2955 68.9375 75.4318 70.7225C72.5682 72.5075 69.4242 73.4 66 73.4Z" fill="#A29C7B"/>
<path d="M66.5773 0L47.7921 18.6622H20.7898V45.6707L2 64.3329L20.7805 82.9813V109.338H47.7828L66.568 128L85.3671 109.338H111.21V82.9813L130 64.3191L111.21 45.6567V18.6484H85.3671L66.5773 0ZM22.5171 20.3869H48.4346L66.5912 2.35352L84.7479 20.3869H109.497V46.3088L127.654 64.3422L109.497 82.3756V107.636H84.7247L66.568 125.67L48.4113 107.636H22.5171V82.371L4.36037 64.3377L22.5171 46.3043V20.3869Z" fill="#F5F5F5"/>
<path d="M66.4594 12.1564L51.1473 27.3647H28.484V49.1988L13.1719 64.4025L28.484 79.6105V100.77H51.1473L66.4594 115.978L81.7716 100.77H103.262V79.6152L118.574 64.4025L103.262 49.1943V27.3647H81.7716L66.4594 12.1564ZM30.2205 29.0894H51.813L66.4827 14.5192L81.1431 29.0894H101.539V49.8371L116.204 64.4025L101.539 78.9725V99.0451H81.1431L66.4734 113.615L51.813 99.0451H30.2205V78.9725L15.5509 64.4025L30.2205 49.8371V29.0894Z" fill="#F5F5F5"/>
</svg>
