<svg width="40" height="40" viewBox="0 0 40 40" fill="none" xmlns="http://www.w3.org/2000/svg">
<g clip-path="url(#clip0_52_3342)">
<path d="M28.2067 39.9955H11.7988V36.0149C11.8213 31.8673 15.1569 28.6359 19.3298 28.1801C17.8437 28.0129 16.4778 27.2816 15.5126 26.1363C14.5474 24.9911 14.0562 23.5189 14.1397 22.0219C14.2232 20.5249 14.8752 19.1168 15.9618 18.0867C17.0484 17.0565 18.487 16.4825 19.9825 16.4825C21.4779 16.4825 22.9166 17.0565 24.0032 18.0867C25.0897 19.1168 25.7417 20.5249 25.8253 22.0219C25.9088 23.5189 25.4175 24.9911 24.4523 26.1363C23.4872 27.2816 22.1213 28.0129 20.6352 28.1801C24.9071 28.6314 28.1706 32.0117 28.1796 36.2496L28.2067 39.9955Z" fill="#A29C7B"/>
<path d="M9.46157 36.1684V40H2.42578V38.5152C2.42578 35.5816 4.72603 33.298 7.68799 32.8828C6.47627 32.7085 5.37845 32.0719 4.62361 31.1057C3.86877 30.1395 3.51521 28.9184 3.63668 27.6972C3.77762 26.4746 4.39141 25.3563 5.34609 24.5827C6.30076 23.8091 7.52009 23.442 8.74192 23.5602C9.96376 23.6784 11.0905 24.2726 11.88 25.215C12.6695 26.1574 13.0586 27.3728 12.9637 28.5998C11.7975 29.6643 10.8759 30.9701 10.2628 32.4269C9.79491 32.6437 9.29968 32.7956 8.79084 32.8783L10.0062 33.1671C9.69276 34.1389 9.5096 35.1482 9.46157 36.1684Z" fill="#A29C7B"/>
<path d="M30.5292 36.4302C30.5135 35.3222 30.3282 34.2233 29.98 33.1717L31.2044 32.8693C30.697 32.7866 30.2033 32.6348 29.7369 32.418C29.1292 30.9647 28.2067 29.6651 27.0361 28.6134C26.9047 27.3764 27.2689 26.1377 28.0485 25.1699C28.8282 24.202 29.9593 23.5843 31.1932 23.4526C32.427 23.321 33.6625 23.6861 34.6278 24.4678C35.5932 25.2494 36.2093 26.3835 36.3406 27.6205C36.4819 28.8534 36.1375 30.0929 35.3808 31.075C34.6241 32.0571 33.5148 32.7041 32.2893 32.8783C35.3143 33.2935 37.556 35.6719 37.5605 38.6642V40.0181H30.5292V36.4302Z" fill="#A29C7B"/>
<path d="M40.0006 13.1739V13.1829L36.2149 16.5948L37.0477 21.4871L32.6678 19.1899L28.2698 21.4871L29.0936 16.5858L25.5645 13.1332L30.4575 12.4111L32.6543 7.9657L34.86 12.4111L39.5775 13.0656L40.0006 13.1739Z" fill="#A29C7B"/>
<path d="M0 13.1829V13.1062L5.14067 12.4157L7.34639 7.9657L9.5431 12.4066L14.4407 13.1332L10.9025 16.6039L11.7353 21.4826L7.34639 19.1899L2.95296 21.4871L3.78123 16.5768L0 13.1829Z" fill="#A29C7B"/>
<path d="M20.0082 11.2152L15.6103 13.5124L16.434 8.61559L12.9004 5.16304L17.798 4.43642L19.9902 0L22.1959 4.43191L27.1025 5.15852L23.5599 8.62913L24.3881 13.5124L20.0082 11.2152Z" fill="#A29C7B"/>
</g>
<defs>
<clipPath id="clip0_52_3342">
<rect width="40" height="40" fill="white"/>
</clipPath>
</defs>
</svg>
