<svg width="128" height="128" viewBox="0 0 128 128" fill="none" xmlns="http://www.w3.org/2000/svg">
<path d="M64 84C62.9 84 61.9583 83.6083 61.175 82.825C60.3917 82.0417 60 81.1 60 80H68C68 81.1 67.6083 82.0417 66.825 82.825C66.0417 83.6083 65.1 84 64 84ZM56 78V74H72V78H56ZM56.5 72C54.2 70.6333 52.375 68.8 51.025 66.5C49.675 64.2 49 61.7 49 59C49 54.8333 50.4583 51.2917 53.375 48.375C56.2917 45.4583 59.8333 44 64 44C68.1667 44 71.7083 45.4583 74.625 48.375C77.5417 51.2917 79 54.8333 79 59C79 61.7 78.325 64.2 76.975 66.5C75.625 68.8 73.8 70.6333 71.5 72H56.5ZM57.7 68H70.3C71.8 66.9333 72.9583 65.6167 73.775 64.05C74.5917 62.4833 75 60.8 75 59C75 55.9333 73.9333 53.3333 71.8 51.2C69.6667 49.0667 67.0667 48 64 48C60.9333 48 58.3333 49.0667 56.2 51.2C54.0667 53.3333 53 55.9333 53 59C53 60.8 53.4083 62.4833 54.225 64.05C55.0417 65.6167 56.2 66.9333 57.7 68Z" fill="#A29C7B"/>
<path d="M64.5773 128L45.7921 109.338H18.7898V82.3293L0 63.6671L18.7805 45.0187V18.6622H45.7828L64.568 0L83.3671 18.6622H109.21V45.0187L128 63.6809L109.21 82.3433V109.352H83.3671L64.5773 128ZM20.5171 107.613H46.4346L64.5912 125.646L82.7479 107.613H107.497V81.6912L125.654 63.6578L107.497 45.6244V20.3639H82.7247L64.568 2.33049L46.4113 20.3639H20.5171V45.629L2.36037 63.6623L20.5171 81.6957V107.613Z" fill="#F5F5F5"/>
<path d="M64.4594 115.844L49.1473 100.635H26.484V78.8012L11.1719 63.5975L26.484 48.3895V27.2302H49.1473L64.4594 12.022L79.7716 27.2302H101.262V48.3848L116.574 63.5975L101.262 78.8057V100.635H79.7716L64.4594 115.844ZM28.2205 98.9106H49.813L64.4827 113.481L79.1431 98.9106H99.5391V78.1629L114.204 63.5975L99.5391 49.0275V28.9549H79.1431L64.4734 14.385L49.813 28.9549H28.2205V49.0275L13.5509 63.5975L28.2205 78.1629V98.9106Z" fill="#F5F5F5"/>
</svg>
