<svg width="128" height="128" viewBox="0 0 128 128" fill="none" xmlns="http://www.w3.org/2000/svg">
<path d="M63.7819 76.4C63.9031 76.4 64.0242 76.37 64.1454 76.31C64.2665 76.25 64.3574 76.19 64.418 76.13L79.3203 61.37C79.6838 61.01 79.9488 60.605 80.1154 60.155C80.282 59.705 80.3653 59.255 80.3653 58.805C80.3653 58.325 80.282 57.8675 80.1154 57.4325C79.9488 56.9975 79.6838 56.615 79.3203 56.285L71.5965 48.635C71.2634 48.275 70.8772 48.0125 70.438 47.8475C69.9988 47.6825 69.5369 47.6 69.0522 47.6C68.5979 47.6 68.1436 47.6825 67.6892 47.8475C67.2349 48.0125 66.826 48.275 66.4625 48.635L65.9627 49.13L69.3249 52.505C69.7792 52.925 70.1124 53.405 70.3244 53.945C70.5364 54.485 70.6424 55.055 70.6424 55.655C70.6424 56.915 70.2108 57.9725 69.3476 58.8275C68.4843 59.6825 67.4166 60.11 66.1445 60.11C65.5387 60.11 64.9556 60.005 64.3953 59.795C63.8349 59.585 63.3427 59.27 62.9187 58.85L59.5111 55.52L51.5602 63.395C51.4693 63.485 51.4012 63.5825 51.3557 63.6875C51.3103 63.7925 51.2876 63.905 51.2876 64.025C51.2876 64.265 51.3785 64.4825 51.5602 64.6775C51.7419 64.8725 51.954 64.97 52.1963 64.97C52.3174 64.97 52.4386 64.94 52.5597 64.88C52.6809 64.82 52.7718 64.76 52.8323 64.7L59.0114 58.58L61.5557 61.1L55.4221 67.22C55.3312 67.31 55.2631 67.4075 55.2176 67.5125C55.1722 67.6175 55.1495 67.73 55.1495 67.85C55.1495 68.09 55.2403 68.3 55.4221 68.48C55.6038 68.66 55.8158 68.75 56.0582 68.75C56.1793 68.75 56.3005 68.72 56.4216 68.66C56.5428 68.6 56.6337 68.54 56.6942 68.48L62.8732 62.405L65.4175 64.925L59.284 71.045C59.1931 71.105 59.1249 71.195 59.0795 71.315C59.0341 71.435 59.0114 71.555 59.0114 71.675C59.0114 71.915 59.1022 72.125 59.284 72.305C59.4657 72.485 59.6777 72.575 59.92 72.575C60.0412 72.575 60.1548 72.5525 60.2608 72.5075C60.3668 72.4625 60.4652 72.395 60.5561 72.305L66.7351 66.23L69.2794 68.75L63.1004 74.87C63.0095 74.96 62.9414 75.0575 62.896 75.1625C62.8505 75.2675 62.8278 75.38 62.8278 75.5C62.8278 75.74 62.9262 75.95 63.1231 76.13C63.32 76.31 63.5396 76.4 63.7819 76.4ZM63.7365 80C62.6158 80 61.6238 79.6325 60.7606 78.8975C59.8973 78.1625 59.39 77.24 59.2385 76.13C58.2087 75.98 57.3454 75.56 56.6488 74.87C55.9521 74.18 55.5281 73.325 55.3766 72.305C54.3468 72.155 53.4911 71.7275 52.8096 71.0225C52.1281 70.3175 51.7116 69.47 51.5602 68.48C50.4092 68.33 49.4702 67.835 48.7433 66.995C48.0164 66.155 47.6529 65.165 47.6529 64.025C47.6529 63.425 47.7665 62.8475 47.9936 62.2925C48.2208 61.7375 48.5464 61.25 48.9705 60.83L59.5111 50.435L65.463 56.33C65.5236 56.42 65.6144 56.4875 65.7356 56.5325C65.8567 56.5775 65.9779 56.6 66.099 56.6C66.3716 56.6 66.5988 56.5175 66.7806 56.3525C66.9623 56.1875 67.0532 55.97 67.0532 55.7C67.0532 55.58 67.0304 55.46 66.985 55.34C66.9396 55.22 66.8714 55.13 66.7806 55.07L60.2835 48.635C59.9503 48.275 59.5641 48.0125 59.1249 47.8475C58.6857 47.6825 58.2238 47.6 57.7392 47.6C57.2849 47.6 56.8305 47.6825 56.3762 47.8475C55.9219 48.0125 55.5129 48.275 55.1495 48.635L48.7433 55.025C48.4707 55.295 48.2435 55.61 48.0618 55.97C47.8801 56.33 47.7589 56.69 47.6983 57.05C47.6377 57.41 47.6377 57.7775 47.6983 58.1525C47.7589 58.5275 47.8801 58.88 48.0618 59.21L45.4266 61.82C44.9117 61.13 44.5331 60.3725 44.2908 59.5475C44.0485 58.7225 43.9576 57.89 44.0182 57.05C44.0788 56.21 44.2908 55.3925 44.6542 54.5975C45.0177 53.8025 45.5175 53.09 46.1536 52.46L52.5597 46.115C53.2867 45.425 54.0969 44.9 54.9905 44.54C55.884 44.18 56.8002 44 57.7392 44C58.6782 44 59.5944 44.18 60.488 44.54C61.3815 44.9 62.1766 45.425 62.8732 46.115L63.373 46.61L63.8728 46.115C64.5997 45.425 65.41 44.9 66.3035 44.54C67.197 44.18 68.1133 44 69.0522 44C69.9912 44 70.9075 44.18 71.801 44.54C72.6945 44.9 73.4896 45.425 74.1863 46.115L81.8646 53.72C82.5613 54.41 83.0913 55.205 83.4548 56.105C83.8183 57.005 84 57.92 84 58.85C84 59.78 83.8183 60.6875 83.4548 61.5725C83.0913 62.4575 82.5613 63.245 81.8646 63.935L66.9623 78.65C66.5382 79.07 66.046 79.4 65.4857 79.64C64.9253 79.88 64.3423 80 63.7365 80Z" fill="#A29C7B"/>
<path d="M64.5773 128L45.7921 109.338H18.7898V82.3293L0 63.6671L18.7805 45.0187V18.6622H45.7828L64.568 0L83.3671 18.6622H109.21V45.0187L128 63.6809L109.21 82.3433V109.352H83.3671L64.5773 128ZM20.5171 107.613H46.4346L64.5912 125.646L82.7479 107.613H107.497V81.6912L125.654 63.6578L107.497 45.6244V20.3639H82.7247L64.568 2.33049L46.4113 20.3639H20.5171V45.629L2.36037 63.6623L20.5171 81.6957V107.613Z" fill="#F5F5F5"/>
<path d="M64.4594 115.844L49.1473 100.635H26.484V78.8012L11.1719 63.5975L26.484 48.3895V27.2302H49.1473L64.4594 12.022L79.7716 27.2302H101.262V48.3848L116.574 63.5975L101.262 78.8057V100.635H79.7716L64.4594 115.844ZM28.2205 98.9106H49.813L64.4827 113.481L79.1431 98.9106H99.5391V78.1629L114.204 63.5975L99.5391 49.0275V28.9549H79.1431L64.4734 14.385L49.813 28.9549H28.2205V49.0275L13.5509 63.5975L28.2205 78.1629V98.9106Z" fill="#F5F5F5"/>
</svg>
