<svg width="359" height="559" viewBox="0 0 359 559" fill="none" xmlns="http://www.w3.org/2000/svg" xmlns:xlink="http://www.w3.org/1999/xlink">
<path d="M320.31 100.271C322.029 85.8727 321.282 48.8704 273.225 32.4189C243.215 22.1436 198.845 26.7893 179.552 0C160.241 26.7893 115.871 22.1436 85.8785 32.4189C37.8216 48.8704 37.0997 85.8727 38.7927 100.271H0V458.737H38.7411C37.0224 473.135 37.77 510.137 85.8269 526.589C115.837 536.864 160.207 532.219 179.5 559C198.819 532.219 243.189 536.864 273.173 526.589C321.23 510.137 321.952 473.135 320.259 458.737H359V100.271H320.31Z" fill="#A29C7B" fill-opacity="0.1"/>
<path d="M303.729 120.791C305.251 108.041 304.589 75.2753 262.021 60.7073C235.438 51.6084 196.135 55.7222 179.046 32C161.941 55.7222 122.638 51.6084 96.0706 60.7073C53.5021 75.2753 52.8627 108.041 54.3623 120.791H20V438.216H54.3167C52.7942 450.966 53.4565 483.732 96.0249 498.3C122.607 507.399 161.91 503.285 179 527C196.113 503.285 235.415 507.399 261.975 498.3C304.544 483.732 305.183 450.966 303.683 438.216H338V120.791H303.729Z" fill="#034845"/>
<path d="M303.729 120.791C305.251 108.041 304.589 75.2753 262.021 60.7073C235.438 51.6084 196.135 55.7222 179.046 32C161.941 55.7222 122.638 51.6084 96.0706 60.7073C53.5021 75.2753 52.8627 108.041 54.3623 120.791H20V438.216H54.3167C52.7942 450.966 53.4565 483.732 96.0249 498.3C122.607 507.399 161.91 503.285 179 527C196.113 503.285 235.415 507.399 261.975 498.3C304.544 483.732 305.183 450.966 303.683 438.216H338V120.791H303.729Z" fill="url(#pattern0_2001_198)" fill-opacity="0.25"/>
<path d="M303.729 120.791C305.251 108.041 304.589 75.2753 262.021 60.7073C235.438 51.6084 196.135 55.7222 179.046 32C161.941 55.7222 122.638 51.6084 96.0706 60.7073C53.5021 75.2753 52.8627 108.041 54.3623 120.791H20V438.216H54.3167C52.7942 450.966 53.4565 483.732 96.0249 498.3C122.607 507.399 161.91 503.285 179 527C196.113 503.285 235.415 507.399 261.975 498.3C304.544 483.732 305.183 450.966 303.683 438.216H338V120.791H303.729Z" stroke="#A29C7B" stroke-miterlimit="10"/>
<defs>
<pattern id="pattern0_2001_198" patternUnits="userSpaceOnUse" patternTransform="matrix(556.25 0 0 476.562 67.75 88.875)" preserveAspectRatio="none" viewBox="0 0 445 381.25" width="1" height="1">
<use xlink:href="#pattern0_2001_198_inner" transform="translate(0 -381.25)"/>
<use xlink:href="#pattern0_2001_198_inner" transform="translate(222.5 -190.625)"/>
<g id="pattern0_2001_198_inner">
<g clip-path="url(#clip0_2001_198)">
<path d="M133.307 90.4283C133.839 85.4313 133.61 72.6283 118.488 66.9281C109.042 63.3588 95.0794 64.9792 88.9996 55.7026C82.9307 64.9828 68.9541 63.3696 59.5079 66.9281C44.3854 72.639 44.1569 85.442 44.6924 90.4283H32.4973V214.572H44.6924C44.1569 219.569 44.3854 232.372 59.5079 238.069C68.9541 241.638 82.9199 240.018 88.9996 249.298C95.0686 240.018 109.042 241.627 118.488 238.069C133.61 232.358 133.839 219.558 133.307 214.572H145.498V90.4283H133.307Z" stroke="#A29C7B" stroke-width="0.5" stroke-miterlimit="10"/>
<path d="M89.0006 50.6733C82.6031 60.4354 67.9162 58.7399 57.9773 62.4841C42.0694 68.4769 41.8267 81.9583 42.3907 87.2051H29.5637V217.795H42.3907C41.8267 223.042 42.0694 236.519 57.9773 242.516C67.9162 246.26 82.6103 244.565 89.0006 254.323C95.3944 244.565 110.085 246.26 120.02 242.516C135.928 236.519 136.171 223.042 135.607 217.795H148.434V87.2051H135.607C136.171 81.9583 135.928 68.4769 120.02 62.4841C110.085 58.7399 95.3944 60.4354 89.0006 50.6733Z" stroke="#949476" stroke-width="0.5" stroke-miterlimit="10"/>
<path d="M89.0005 45.6479C82.2889 55.8883 66.8665 54.1108 56.4457 58.0406C39.7524 64.3297 39.4989 78.4748 40.088 83.9787H26.6184V221.018H40.0773C39.4882 226.526 39.7417 240.671 56.435 246.96C66.863 250.886 82.2782 249.101 88.9898 259.352C95.6978 249.112 111.124 250.89 121.541 246.96C138.234 240.671 138.488 226.526 137.899 221.018H151.358V83.9787H137.899C138.488 78.4748 138.234 64.3297 121.541 58.0406C111.124 54.1108 95.7085 55.8883 89.0005 45.6479Z" stroke="#858D71" stroke-width="0.5" stroke-miterlimit="10"/>
<path d="M89 40.6187C81.9707 51.3265 65.8308 49.4812 54.9137 53.5966C37.4207 60.1819 37.1708 74.9909 37.7777 80.7553H23.6941V224.241H37.7884C37.1708 230.005 37.4314 244.815 54.9244 251.4C65.8415 255.515 81.9814 253.652 89.0107 264.378C96.0365 253.652 112.176 255.515 123.093 251.4C140.586 244.815 140.84 230.005 140.229 224.241H154.324V80.7553H140.233C140.851 74.9909 140.59 60.1819 123.097 53.5966C112.166 49.4812 96.0258 51.3444 89 40.6187Z" stroke="#77856C" stroke-width="0.5" stroke-miterlimit="10"/>
<path d="M89.0002 35.5859C81.6567 46.79 64.7921 44.8447 53.3824 49.1493C35.1183 56.0309 34.8398 71.5073 35.486 77.5323H20.7598V227.468H35.486C34.8398 233.489 35.129 248.966 53.3824 255.847C64.8064 260.13 81.6567 258.203 89.0002 269.411C96.3401 258.207 113.205 260.152 124.615 255.847C142.879 248.966 143.157 233.489 142.511 227.468H157.237V77.5323H142.511C143.157 71.5073 142.868 56.0309 124.615 49.1493C113.205 44.8661 96.3401 46.7971 89.0002 35.5859Z" stroke="#687D67" stroke-width="0.5" stroke-miterlimit="10"/>
<path d="M88.9996 30.564C81.3384 42.2498 63.7491 40.2224 51.8503 44.7054C32.8008 51.8832 32.5116 68.0273 33.1828 74.3093H17.8318V230.691H33.1828C32.5116 236.973 32.8008 253.117 51.8503 260.295C63.7491 264.778 81.3384 262.75 88.9996 274.436C96.6573 262.75 114.247 264.778 126.128 260.295C145.177 253.117 145.466 236.973 144.795 230.691H160.146V74.3093H144.795C145.466 68.0273 145.177 51.8832 126.128 44.7054C114.247 40.2259 96.6573 42.2498 88.9996 30.564Z" stroke="#5A7662" stroke-width="0.5" stroke-miterlimit="10"/>
<path d="M89.0004 25.5347C81.025 37.706 62.711 35.593 50.3195 40.2617C30.4846 47.7358 30.1812 64.5329 30.8844 71.0826H14.8909V233.917H30.9023C30.1883 240.456 30.5025 257.264 50.3374 264.738C62.7288 269.407 81.0393 267.294 89.0183 279.462C96.9901 267.294 115.308 269.407 127.696 264.738C147.534 257.264 147.834 240.467 147.131 233.917H163.124V71.0826H147.131C147.845 64.5436 147.534 47.7358 127.696 40.2617C115.29 35.5859 96.9722 37.706 89.0004 25.5347Z" stroke="#A29C7B" stroke-width="0.5" stroke-miterlimit="10"/>
<path d="M89.0006 20.5093C80.7075 33.1589 61.6687 30.9638 48.7882 35.818C28.1679 43.5848 27.8537 61.0601 28.582 67.8596H11.9565V237.141H28.582C27.868 243.94 28.1679 261.412 48.7882 269.182C61.6687 274.037 80.7075 271.841 89.0006 284.491C97.2902 271.841 116.329 274.037 129.209 269.182C149.833 261.412 150.144 243.94 149.416 237.141H166.041V67.8596H149.426C150.14 61.0601 149.844 43.5884 129.22 35.818C116.329 30.9638 97.3044 33.1589 89.0006 20.5093Z" stroke="#A29C7B" stroke-width="0.5" stroke-miterlimit="10"/>
<path d="M88.9996 15.48C80.3923 28.6114 60.6253 26.3342 47.2556 31.3705C25.8357 39.4371 25.5251 57.5763 26.2819 64.6364H9.021V240.364H26.2783C25.5251 247.424 25.8464 265.563 47.2556 273.626C60.6253 278.666 80.3923 276.385 88.9996 289.52C97.6033 276.385 117.37 278.666 130.74 273.626C152.16 265.563 152.474 247.424 151.717 240.364H168.975V64.6364H151.717C152.474 57.5763 152.149 39.4371 130.74 31.3705C117.37 26.3342 97.6033 28.6114 88.9996 15.48Z" stroke="#A29C7B" stroke-width="0.5" stroke-miterlimit="10"/>
<path d="M89.0008 10.4512C80.0758 24.068 59.5876 21.7052 45.7253 26.9271C23.5307 35.29 23.1951 54.093 23.9805 61.41H6.08765V243.587H23.9805C23.1951 250.908 23.5307 269.711 45.7253 278.073C59.5876 283.295 80.0794 280.929 89.0008 294.546C97.9258 280.932 118.41 283.295 132.273 278.073C154.467 269.711 154.803 250.908 154.018 243.587H171.918V61.41H154.025C154.81 54.093 154.475 35.29 132.28 26.9271C118.41 21.7052 97.9222 24.068 89.0008 10.4512Z" stroke="#A29C7B" stroke-width="0.5" stroke-miterlimit="10"/>
<path d="M89 5.42578C79.7609 19.5209 58.5444 17.076 44.193 22.4835C21.2129 31.139 20.8666 50.6095 21.677 58.1764H3.15234V246.803H21.677C20.8666 254.377 21.2129 273.848 44.193 282.496C58.5444 287.903 79.7609 285.458 89 299.554C98.2356 285.458 119.452 287.903 133.803 282.496C156.784 273.837 157.133 254.366 156.319 246.803H174.848V58.1871H156.319C157.133 50.6094 156.784 31.1389 133.803 22.4941C119.438 17.0759 98.2356 19.5245 89 5.42578Z" stroke="#A29C7B" stroke-width="0.5" stroke-miterlimit="10"/>
<path d="M158.622 54.9639C159.461 47.1114 159.1 26.9912 135.335 18.0394C120.495 12.4463 98.564 14.9771 89 0.396484C79.4467 14.9771 57.5019 12.4463 42.6615 18.0394C18.896 26.9912 18.5354 47.1257 19.3779 54.9639H0.217773V250.037H19.3779C18.5354 257.889 18.896 278.009 42.6615 286.961C57.5019 292.554 79.4324 290.024 89 304.604C98.5533 290.024 120.495 292.554 135.335 286.961C159.1 278.009 159.461 257.871 158.622 250.037H177.782V54.9639H158.622Z" stroke="#034845" stroke-width="0.5" stroke-miterlimit="10"/>
</g>
</g>
<use xlink:href="#pattern0_2001_198_inner" transform="translate(222.5 190.625)"/>
</pattern><clipPath id="clip0_2001_198">
<rect width="178" height="305" fill="white"/>
</clipPath>
</defs>
</svg>
