<svg width="330" height="514" viewBox="0 0 330 514" fill="none" xmlns="http://www.w3.org/2000/svg">
<path d="M294.436 92.1988C296.016 78.9599 295.328 44.9363 251.154 29.8092C223.568 20.361 182.782 24.6328 165.047 0C147.297 24.6328 106.511 20.361 78.9412 29.8092C34.7664 44.9363 34.1028 78.9599 35.659 92.1988H0V421.808H35.6116C34.0317 435.047 34.719 469.071 78.8938 484.198C106.479 493.646 147.265 489.374 165 514C182.758 489.374 223.544 493.646 251.106 484.198C295.281 469.071 295.945 435.047 294.388 421.808H330V92.1988H294.436Z" fill="#A29C7B" fill-opacity="0.1"/>
<path d="M274.824 117.208C276.165 105.978 275.582 77.1172 238.1 64.2856C214.694 56.2712 180.088 59.8947 165.04 39C149.979 59.8947 115.373 56.2712 91.9804 64.2856C54.4987 77.1172 53.9357 105.978 55.2561 117.208H25V396.799H55.2159C53.8754 408.029 54.4585 436.889 91.9402 449.72C115.346 457.735 149.952 454.111 165 475C180.068 454.111 214.674 457.735 238.06 449.72C275.541 436.889 276.105 408.029 274.784 396.799H305V117.208H274.824Z" fill="#034845" stroke="#A29C7B" stroke-miterlimit="10"/>
</svg>
