<svg width="29" height="56" viewBox="0 0 29 56" fill="none" xmlns="http://www.w3.org/2000/svg">
<path d="M2.52137 56C1.88049 56 1.2396 55.7739 0.733644 55.2894C-0.244548 54.3527 -0.244548 52.8023 0.733644 51.8656L22.7261 30.8061C24.3452 29.2557 24.3452 26.7363 22.7261 25.1859L0.733644 4.12632C-0.244548 3.18962 -0.244548 1.63922 0.733644 0.702523C1.71183 -0.234174 3.33091 -0.234174 4.3091 0.702523L26.3015 21.7621C28.0218 23.4094 29 25.6381 29 27.996C29 30.3539 28.0555 32.5826 26.3015 34.2299L4.3091 55.2894C3.80314 55.7416 3.16226 56 2.52137 56Z" fill="#A29C7B"/>
</svg>
